<svg width="352" height="352" viewBox="0 0 352 352" fill="none" xmlns="http://www.w3.org/2000/svg">
<g clip-path="url(#clip0_75_22)">
<g filter="url(#filter0_d_75_22)">
<path d="M0 0H352V352H0V0Z" fill="black"/>
</g>
<g filter="url(#filter1_dd_75_22)">
<path d="M310.992 49.9516H313.36L316.374 50.385L319.173 51.4684L321.326 52.7685L323.91 54.9353L325.632 57.3188L327.139 60.3524L327.785 62.7359L328 64.2526V68.3696L327.139 71.6199L325.417 74.8701L323.048 77.4703L320.895 79.2037L317.881 80.7205L315.944 81.3706L314.652 81.5872L309.7 81.8039L307.978 83.5374L306.47 85.2709L304.102 87.871L302.595 89.6045L300.012 92.6381L298.074 94.8049L296.567 96.5383L294.629 98.7052L293.122 100.439L290.539 103.472L289.677 104.989L291.615 107.156L293.337 109.323L296.136 113.006L298.935 117.34L301.088 121.24L303.241 126.007L304.963 131.208L306.255 137.275L306.901 142.475L307.116 145.725V152.659L306.47 159.376L305.179 165.66L303.456 171.294L301.303 176.928L298.289 182.995L295.706 187.328L292.691 191.662L290.323 194.696L288.386 197.079L286.448 199.246L284.941 200.979L277.621 208.347L275.898 209.863L272.884 212.463L270.085 214.847L266.425 217.881L262.981 220.697L259.536 223.298L253.507 228.065L250.709 230.231L247.694 232.615L244.896 234.782L241.02 237.815L237.36 240.849L230.471 246.483L227.672 248.866L225.304 250.816L219.275 256.017L216.046 259.05L212.386 262.517L203.774 271.184L202.267 272.918L200.329 275.085L198.391 277.468L195.808 280.502L193.009 284.185L190.856 287.002L188.273 290.686L185.904 294.369L183.536 298.27L181.168 302.603L178.369 308.671L176.001 314.088L174.924 316.471H174.494L172.125 311.054L169.757 306.07L167.389 301.52L163.944 295.886L161.36 292.203L159.423 289.602L156.624 286.136L154.04 283.319L152.533 281.802L151.026 280.068L148.227 277.468L145.859 275.301L143.491 273.351L140.692 270.968L137.893 268.801L136.171 267.284L136.386 266.851L138.97 267.501L142.845 269.234L146.72 271.401L149.734 273.351L152.103 274.868L149.95 270.968L147.581 267.284L144.998 262.951V262.084L146.074 262.3L148.658 264.684L150.38 266.201L152.533 268.368L154.04 270.101L155.978 272.268L158.346 275.301L160.93 278.768L163.944 283.319L166.528 287.869L169.111 292.853L171.91 299.137L174.494 305.637L176.001 302.603L178.154 297.62L181.168 291.553L183.321 287.869L185.043 285.269L187.842 281.369L190.856 277.468L193.224 274.651L195.162 272.268L197.961 269.451L199.468 267.718L203.128 264.034L204.635 262.3L206.357 260.784L209.802 257.317H210.233L210.448 256.667L212.17 255.15L214.969 252.55L216.692 251.033L219.06 248.866L221.428 246.916L223.581 244.966L225.949 243.016L228.748 240.632L230.686 239.115L236.068 234.782L238.867 232.615L241.881 230.231L244.68 228.065L248.125 225.464L251.139 223.081L253.938 220.914L257.813 217.881L260.828 215.497L264.488 212.463L266.641 210.73L269.439 208.347L271.808 206.396L274.176 204.23L275.898 202.713L278.051 200.763L282.357 196.429L284.295 194.045L286.448 191.662L288.816 188.412L291.83 183.861L294.199 179.744L296.567 174.761L298.504 169.56L300.012 164.36L301.303 157.643L301.734 153.526V143.558L301.088 138.141L300.012 133.158L298.504 128.607L296.567 124.057L293.983 119.723L291.83 116.69L289.031 113.223L287.094 110.839L285.802 109.539L284.941 109.973L282.788 112.139L280.85 114.523L279.128 116.473L278.912 117.34L281.281 119.94L284.08 123.624L286.663 127.741L289.462 133.591L291.184 139.008L292.261 144.208L292.691 148.325V155.476L292.046 160.893L290.969 166.093L289.247 171.727L286.878 177.144L284.51 181.695L282.142 185.595L280.42 188.195L277.405 192.312L275.683 194.479L273.745 196.862L271.162 199.896L268.794 202.496L267.286 204.23L261.904 209.647L260.182 211.163L257.598 213.547L255.876 215.064L252.862 217.664L249.632 220.481L247.264 222.431L245.111 224.381L242.743 226.331L239.298 229.148L235.638 231.965L231.547 234.998L227.241 238.249L219.491 243.882L215.831 246.483L208.08 252.116L203.774 255.15L200.76 257.317L196.669 260.35L193.655 262.734L190.856 265.117L186.55 269.018L184.613 271.184L182.244 274.001L179.445 277.902L176.862 282.019L174.924 285.269H174.278L172.771 282.019L169.972 276.602L167.389 272.701L164.805 269.234L162.222 266.201L153.61 257.533L151.887 256.017L150.38 254.5L148.658 252.983L146.074 250.383V250.166L148.227 250.383L152.103 251.9L155.547 253.633L159.207 256.017L161.791 257.967L163.944 259.917L165.666 261.434L168.25 264.034L170.188 266.417L172.341 269.234L174.709 273.135L175.355 274.001V274.435H175.785L176.216 273.351L179.23 269.234L181.383 266.851L182.89 265.117L186.335 261.65L188.703 259.7L190.641 257.967L194.301 255.15L198.391 252.116L202.267 249.3L205.712 246.916L209.587 244.099L213.032 241.716L216.907 238.899L220.567 236.299L224.442 233.482L228.533 230.448L232.408 227.415L235.423 225.031L238.867 222.214L241.666 219.831L244.034 217.881L246.833 215.497L248.986 213.764L251.139 211.813L253.507 209.863L256.737 206.83L259.32 204.446L265.995 197.729L267.502 195.996L270.085 193.179L274.822 187.112L276.76 184.295L279.343 180.178L281.281 176.711L283.434 171.944L285.802 164.793L286.878 159.16L287.309 154.393V150.492L286.878 145.942L285.587 140.092L283.649 134.241L281.927 130.774L279.989 127.524L278.051 124.924L276.114 122.54L275.252 121.674L274.391 121.89L272.454 123.84L270.947 125.574L268.578 128.174L266.641 130.557L264.057 133.374L262.55 135.108L261.473 136.408L261.689 137.275L263.626 139.225L265.133 140.958L269.439 145.292L270.947 147.025L273.53 149.842L275.898 152.876L278.051 155.693L278.267 156.559L277.19 156.343L273.745 153.959L268.794 150.492L265.779 148.325L261.904 145.509L258.89 143.342L256.522 141.608L253.507 139.441L252.646 138.791L253.077 137.708L255.876 134.891L257.383 133.158L259.536 130.774L261.043 129.041L264.057 125.79L266.856 122.757L268.363 121.023L271.592 117.557L273.745 115.173L275.252 113.44L277.19 111.273L278.697 109.539L280.635 107.372L282.788 104.989L284.725 102.605L287.74 99.3552L289.677 96.9717L292.691 93.7215L294.199 91.988L296.136 89.8212L297.643 88.0877L299.581 85.9209L301.949 83.3207L304.748 80.2872V79.6371L303.026 78.337L301.519 77.0369L299.366 74.22L297.643 70.7531L296.782 68.1529V67.0695H296.352L295.921 67.9362L293.122 71.1865L291.184 73.57L289.031 75.9535L287.094 78.337L284.295 81.5872L282.357 83.9708L280.42 86.1376L278.482 88.5211L276.544 90.6879L274.607 93.0714L272.669 95.2382L270.731 97.6218L268.148 100.655L266.21 103.039L263.842 105.856L261.904 108.239L259.105 111.489L256.737 114.306L254.799 116.69L252.216 119.723L250.278 122.107L247.91 124.924L245.972 127.307L243.173 130.557L241.236 132.941L238.867 135.541L236.93 137.925L234.992 140.092L233.054 142.475L227.887 148.542L225.949 150.926L223.151 154.176L221.213 156.559L219.275 158.726L217.338 161.11L214.754 164.143L212.816 166.527L205.066 175.627L202.697 178.444L200.114 181.478L198.176 183.861L195.808 186.678L193.87 189.062L189.134 194.696L187.196 197.079L184.397 200.329L182.029 203.146L176.862 209.213L174.063 212.463L171.695 215.28L169.111 218.314L167.173 220.697L159.423 229.798L157.485 232.182L154.902 235.215L152.964 237.599L151.026 239.765L149.089 242.149L146.72 244.966L144.783 247.349L142.63 249.95L139.615 254.067L137.032 258.617L135.525 260.35L128.205 265.551L125.406 267.284L122.392 269.018L118.947 270.751L113.995 273.135L107.967 275.735L100.431 278.552L93.1114 280.935L84.0689 283.319L73.7347 285.702L61.678 288.086L58.8792 288.519H57.5874L57.8027 287.652L59.9557 285.269L62.3239 282.235L64.9075 279.202L67.2758 276.168L69.4287 273.785L71.1511 271.618L73.5194 268.801L75.8876 265.767L78.4712 262.734L80.4089 260.35L82.7771 257.533L84.7148 255.15L86.8678 252.766L88.8054 250.383L91.389 247.349L93.3267 244.966L96.1255 241.716L98.0632 239.332L100.647 236.299L105.383 230.665L107.321 228.281L109.689 225.464L111.627 223.081L113.995 220.264L116.579 217.231L118.516 214.847L120.885 212.247L122.822 209.863L125.406 207.046L127.344 204.663L129.712 202.063L131.649 199.679L134.233 196.646L135.31 195.562H135.74L136.171 202.063L137.032 208.997L137.463 212.68L138.539 212.03L141.123 208.997L143.491 206.396L144.998 204.663L147.797 201.413L150.165 198.812L151.672 197.079L154.256 194.045L156.624 191.445L158.131 189.712L160.715 186.678L163.729 183.428L165.236 181.695L167.389 179.311L168.896 177.578L171.479 174.761L174.278 171.727L175.785 169.994L180.952 164.36L183.321 161.76L186.55 158.293L188.918 155.693L192.794 151.792L194.301 150.059L199.899 144.425L201.621 142.908L204.635 139.875L207.003 137.925L207.865 137.275L208.51 137.491L206.142 140.525L203.128 144.208L201.19 146.592L198.822 149.409L196.884 151.792L194.516 154.609L192.578 156.993L190.641 159.16L188.703 161.543L185.904 164.793L183.321 167.827L181.383 170.21L178.584 173.461L176.001 176.494L174.063 178.878L171.695 181.478L169.757 183.861L167.819 186.028L165.882 188.412L163.083 191.445L161.145 193.829L155.547 200.329L153.61 202.496L151.672 204.88L149.519 207.263L147.581 209.647L145.428 212.03L143.491 214.414L141.553 216.58L139.615 218.964L137.463 221.347L133.587 226.114H133.157L131.865 218.314L131.004 212.897L130.573 210.947L129.712 211.38L127.559 213.764L125.621 216.147L123.253 218.747L121.315 221.131L118.947 223.731L117.44 225.464L114.856 228.498L112.488 231.098L108.182 236.515L106.675 238.899L106.46 240.849L107.321 242.366L109.043 243.666L111.412 244.533L112.488 244.749H115.933L118.086 244.099L120.023 242.799L120.669 242.582L121.1 241.716L122.607 239.549L123.468 237.599L123.684 236.515V232.832H124.329L125.836 234.348L127.559 236.515L129.927 239.549L132.511 243.449L135.74 248.649L136.171 249.083L138.754 246.049L140.692 243.666L143.06 241.066L144.567 239.332L147.151 236.299L149.95 233.048L152.533 230.015L155.332 226.765L157.27 224.598L158.777 222.864L160.715 220.481L163.298 217.664L165.236 215.28L167.173 213.114L168.681 211.38L173.848 205.313L176.216 202.713L178.154 200.329L180.522 197.729L182.46 195.346L184.397 193.179L186.335 190.795L188.273 188.628L190.21 186.245L193.009 182.995L194.947 180.611L196.884 178.444L198.822 176.061L201.19 173.244L203.128 170.86L205.496 168.044L207.434 165.66L210.018 162.627L212.386 159.593L214.323 157.426L216.692 154.393L218.629 152.226L220.567 149.842L222.505 147.675L224.442 145.292L226.811 142.475L228.748 140.092L233.485 134.458L237.36 129.691L239.728 126.874L241.666 124.49L244.68 120.807L247.264 117.773L249.202 115.39L251.785 112.356L256.522 106.722L257.383 105.206L249.417 102.605L242.527 100.872L238.006 100.222L231.117 100.005L226.165 100.222L221.644 100.872L217.122 102.172L214.539 103.256L211.955 104.556L209.372 106.289L206.573 108.456L203.774 111.056L199.683 115.173L197.315 118.207L195.808 120.373L193.87 123.624L192.148 127.524L190.856 131.424L189.78 136.841L189.134 142.908L188.703 143.775L187.842 143.342L186.765 140.958L185.474 136.625L184.828 132.724L184.613 130.557V123.407L185.258 117.557L186.335 112.356L187.627 107.806L189.78 102.605L191.933 98.4885L193.655 95.8883L195.593 93.2881L197.961 90.6879L199.468 88.9545L202.482 86.1376L206.357 83.3207L209.156 81.5872L212.386 79.8538L216.692 78.1203L220.352 77.0369L224.658 76.1702L228.533 75.7368H235.423L241.451 76.3869L247.694 77.687L253.077 79.2037L259.966 81.8039L264.272 83.7541L270.516 86.7876L272.023 87.6544L272.884 87.221L275.037 84.8375L276.975 82.454L279.128 80.0705L281.065 77.687L283.434 75.0868L285.371 72.7033L287.524 70.3198L289.462 67.9362L291.83 65.3361L293.337 63.6026L295.921 60.569L298.289 57.9689L300.873 55.152L302.595 53.4185L304.748 51.9017L307.547 50.6016L310.992 49.9516Z" fill="#FDFCFC"/>
</g>
<path d="M228.965 81.1542H234.348L238.869 81.5875L246.189 83.1043L253.724 85.4878L259.537 87.8713L263.197 89.6048L267.934 92.4217L267.719 93.2884L265.781 95.6719L263.843 97.8387L261.69 100.656L260.829 100.872L252.648 98.0554L246.835 96.5386L241.237 95.4552L236.285 94.8052L232.195 94.5885H229.826L223.798 95.0219L218.416 96.1053L213.249 97.8387L208.943 100.006L206.359 101.739L202.914 104.339L199.254 107.806L197.317 109.756L195.379 112.14L193.011 115.173L190.858 118.64L189.997 119.507L190.642 115.39L191.504 111.923L193.657 106.289L195.594 102.172L197.747 98.7055L200.331 95.2385L202.699 92.6384L204.637 90.6882L207.651 88.3047L210.665 86.3546L215.186 84.1877L219.062 82.8876L223.583 81.8042L228.965 81.1542Z" fill="#6F62D4"/>
<path d="M100.216 245.399L101.077 245.616L103.014 247.783L105.383 249.949L108.397 251.9L110.765 252.983L113.564 253.633H116.578L119.377 252.766L121.745 251.25L123.898 248.866L126.266 245.399L126.912 245.616L128.85 249.733L129.711 252.983V255.583L128.635 257.75L126.912 259.483L123.037 262.3L118.731 264.901L113.779 267.501L110.119 269.234L104.306 271.618L98.2779 273.785L91.3884 275.951L82.5612 278.335L76.9635 279.635L72.6576 280.502L71.7964 280.285L73.9494 277.251L78.6859 271.184L80.6235 268.801L83.4224 265.334L85.7907 262.517L87.7283 260.134L90.0966 257.317L92.0343 254.933L94.4025 252.116L96.9861 249.083L98.9238 246.699L100.216 245.399Z" fill="#6F62D4"/>
<path d="M310.341 55.1514H314.432L317.016 56.0182L319.384 57.5349L321.106 59.4851L322.829 62.952L323.044 64.0354V67.9357L322.398 70.1025L321.106 72.2694L318.738 74.6529L316.8 75.7363L315.078 76.3863L313.786 76.603H311.203L308.619 75.953L306.251 74.6529L304.744 73.3528L302.806 70.7526L301.729 67.9357L301.514 64.9021L301.945 62.7353L303.452 59.7018L305.39 57.5349L307.758 56.0182L309.48 55.3681L310.341 55.1514Z" fill="#6F62D4"/>
<g filter="url(#filter2_d_75_22)">
<mask id="path-6-outside-1_75_22" maskUnits="userSpaceOnUse" x="22" y="33" width="159" height="191" fill="black">
<rect fill="white" x="22" y="33" width="159" height="191"/>
<path d="M82.9912 35H83.4218V37.1668L83.2065 38.4669V45.8341L84.283 51.2512L85.5748 55.1515L87.7278 59.7018L89.8807 62.7354L92.249 65.5522L94.6173 67.9358L98.2773 70.5359L101.722 72.2694L105.167 73.5695L115.932 76.1697L119.376 76.8197L119.807 77.0364L118.085 74.6529L114.855 71.4027L112.487 69.4525L112.056 68.5858L115.716 68.8025L120.668 69.6692L128.419 71.6194L133.801 73.5695L138.322 75.953L141.121 78.1198L142.844 79.8533L143.274 80.07L143.49 77.4698V74.4362L142.628 70.5359L140.906 66.6357L141.121 65.7689L145.427 67.7191L147.15 68.5858L150.164 70.7526L152.963 73.3528L155.761 76.8197L157.699 80.07L159.422 83.7536L161.574 89.8207L162.22 90.6874V91.1208H162.651L163.512 92.2042L165.235 93.721L167.603 96.3212L169.756 99.138L171.909 102.388L174.492 107.589L175.999 111.489L177.291 116.473L178.368 121.89L178.798 126.223V132.724L178.152 139.441L176.948 146.659L175.939 150.214L175.569 149.625L169.54 139.658L166.311 134.891L162.866 130.34L160.283 127.307L156.623 123.623L154.254 121.673L151.025 119.29L147.796 117.339L144.351 115.606L141.121 114.306L136.815 113.006L132.294 112.139L128.204 111.706H123.252L117.654 112.356L112.702 113.439L107.535 115.173L103.014 117.339L99.3538 119.723L96.3396 122.106L93.5408 124.707L90.9572 127.74L88.8043 130.774L86.8666 134.024L84.283 139.441L82.9912 143.558L82.1301 147.892L81.6995 151.575V158.292L82.1301 162.626L82.9912 167.393L84.4983 172.593L86.436 177.794L89.0195 182.994L91.3878 186.894L93.9714 190.578L96.7702 194.045L98.2773 195.778L99.3538 196.862V197.295L100.215 197.729L101.076 198.595V199.029L101.937 199.462L103.66 201.196L106.028 203.146L109.042 205.313L111.841 207.046L115.501 208.779L115.716 209.43L113.348 210.08L108.181 210.946L102.153 211.596H91.3878L85.3595 210.73L81.9148 209.646L77.8241 207.696L78.6853 211.596L80.4077 215.497L82.1301 218.53L83.6371 220.48V220.914L82.3454 220.697L76.1018 217.88L72.657 215.93L69.8582 213.98L67.4899 212.03L64.691 209.213L62.3228 205.963L60.6004 202.496L59.5239 199.245L59.0933 196.862V191.445L54.7874 191.011L49.405 189.711L45.7449 188.411L41.439 186.461L37.1331 184.078L32.8272 181.044L29.5977 178.227L27.4447 176.277L24.8612 173.677L24 172.377V171.943L26.3683 172.377L32.1813 173.243H36.7025L40.5778 172.593L43.592 171.51L46.6061 169.343L48.7591 167.176V166.093L46.3908 162.409L44.2379 158.726L41.8696 153.525L40.3625 148.975L39.0708 143.558L38.2096 137.491L37.9943 134.457V127.74L38.4249 122.54L39.2861 116.906L40.7931 110.839L41.2237 110.189L41.8696 110.406L42.7308 112.789L44.8838 118.856L46.6061 122.323L47.6826 124.057L47.8979 123.19L48.3285 118.856L49.1897 115.173L50.4815 111.922L52.4191 108.239L54.1415 105.422L56.7251 100.438L58.0168 96.5379L58.6627 93.5043V87.4372L58.0168 84.6203V83.9703L59.0933 84.1869L61.6769 86.7871L64.2605 90.4707L66.1981 93.9377L67.7052 97.4046L68.5664 100.438L68.997 102.822V105.422H68.5664L68.1358 106.505L66.6287 108.022L65.5522 109.322H65.1216L64.9063 102.822L64.0452 98.7047L63.184 96.3212L62.9687 95.6711L60.8157 101.955L59.0933 105.639L57.1557 108.889L55.4333 111.706L53.7109 116.039L52.4191 120.59L52.2038 121.89V124.273L53.065 127.74L54.7874 131.64L56.7251 135.324V135.974L55.218 135.757L51.7733 134.241L49.405 132.724L47.252 130.774L44.6685 127.09L42.7308 123.84L42.5155 124.923L42.3002 130.34L42.5155 135.541L43.1614 140.958L44.0226 145.291L45.5297 150.492L47.252 154.825L49.1897 158.942L52.4191 164.143L54.3568 166.743L56.5098 169.56L56.7251 170.21H57.1557V171.077L50.9121 171.293L49.1897 173.027L47.0367 174.544L44.2379 175.844L41.2237 176.71L38.4249 177.144L35.1954 177.36L38.2096 179.527L41.439 181.477L45.9602 183.644L51.1274 185.378L55.8639 186.244H59.7392L62.5381 185.811H63.6146L63.8299 186.461L63.184 190.795V195.128L63.8299 198.595L65.1216 202.062L66.6287 204.879L68.7817 207.696L70.9346 209.863L73.3029 211.596L74.5947 212.463L73.5182 208.779L72.4417 204.446L72.2264 202.496V196.212L72.8723 196.429L74.3794 198.812L76.3171 200.979L78.47 202.712L82.3454 204.879L85.5748 206.179L89.2348 207.046L95.0479 207.479H100.43L103.444 207.263L104.521 207.046L101.507 204.879L98.2773 202.062L93.7561 197.512L91.3878 194.478L89.4501 192.095L86.0054 186.894L83.8524 183.211L81.2689 177.794L79.1159 171.727L77.8241 166.526L76.9629 161.543L76.7477 159.376V150.492L77.8241 143.991L79.3312 138.791L81.2689 134.241L83.6371 129.69L85.1442 127.523L87.7278 124.057L90.7419 120.806L93.3255 118.206L96.3396 115.823L99.5691 113.656L104.521 111.056L108.827 109.322L113.348 108.022L117.654 107.155L121.314 106.722H128.849L134.017 107.372L138.968 108.455L143.059 109.755L146.288 111.056L150.379 113.006L154.039 115.389L156.407 117.123L159.206 119.506L161.79 121.89L163.512 123.623L165.019 125.357L168.033 129.04L170.832 133.157L173.416 136.841L174.062 137.708L174.492 133.374V129.04L174.062 124.49L173.201 119.723L171.909 114.523L170.402 110.189L168.464 105.855L166.311 101.955L164.589 99.5714L162.005 96.5379L160.498 95.0211L158.345 93.5043L156.407 87.2205L154.47 82.4535L152.532 79.2032L151.025 77.2531L148.657 74.6529L148.011 74.0029L147.796 77.6865L147.15 81.1534L145.858 84.4036L143.92 87.4372L142.413 89.604L140.906 91.9875H140.475L140.045 86.3538L139.184 83.3202L137.677 81.1534L135.308 79.2032L131.218 77.0364L125.835 75.0863L122.606 74.2195L123.898 75.953L125.62 78.9866L126.912 82.4535L127.773 87.6539V89.604L126.912 89.1706L124.759 86.3538L121.96 83.5369L120.453 82.4535L116.577 81.1534L104.951 78.3365L99.7844 76.6031L96.3396 74.8696L93.1102 72.7028L90.3113 70.3193L86.8666 66.8523L84.4983 63.6021L82.3454 59.9185L80.623 55.5848L78.9006 49.5177L78.2547 49.3011L77.6088 51.4679L75.8865 57.1016L74.3794 63.3854L73.3029 69.6692L72.8723 74.2195V81.3701L73.5182 88.0872L75.2406 98.9214L75.4559 101.522L74.5947 101.305L71.1499 96.1045L70.0735 94.371L69.4276 91.9875L68.7817 87.0038L68.3511 79.8533V74.4362L68.7817 69.4525L69.6429 64.0355L70.9346 58.4017L72.8723 52.1179L74.81 47.5676L76.5324 44.1007L78.2547 41.0671L80.8383 37.6002L82.776 35.2167L82.9912 35Z"/>
</mask>
<path d="M82.9912 35H83.4218V37.1668L83.2065 38.4669V45.8341L84.283 51.2512L85.5748 55.1515L87.7278 59.7018L89.8807 62.7354L92.249 65.5522L94.6173 67.9358L98.2773 70.5359L101.722 72.2694L105.167 73.5695L115.932 76.1697L119.376 76.8197L119.807 77.0364L118.085 74.6529L114.855 71.4027L112.487 69.4525L112.056 68.5858L115.716 68.8025L120.668 69.6692L128.419 71.6194L133.801 73.5695L138.322 75.953L141.121 78.1198L142.844 79.8533L143.274 80.07L143.49 77.4698V74.4362L142.628 70.5359L140.906 66.6357L141.121 65.7689L145.427 67.7191L147.15 68.5858L150.164 70.7526L152.963 73.3528L155.761 76.8197L157.699 80.07L159.422 83.7536L161.574 89.8207L162.22 90.6874V91.1208H162.651L163.512 92.2042L165.235 93.721L167.603 96.3212L169.756 99.138L171.909 102.388L174.492 107.589L175.999 111.489L177.291 116.473L178.368 121.89L178.798 126.223V132.724L178.152 139.441L176.948 146.659L175.939 150.214L175.569 149.625L169.54 139.658L166.311 134.891L162.866 130.34L160.283 127.307L156.623 123.623L154.254 121.673L151.025 119.29L147.796 117.339L144.351 115.606L141.121 114.306L136.815 113.006L132.294 112.139L128.204 111.706H123.252L117.654 112.356L112.702 113.439L107.535 115.173L103.014 117.339L99.3538 119.723L96.3396 122.106L93.5408 124.707L90.9572 127.74L88.8043 130.774L86.8666 134.024L84.283 139.441L82.9912 143.558L82.1301 147.892L81.6995 151.575V158.292L82.1301 162.626L82.9912 167.393L84.4983 172.593L86.436 177.794L89.0195 182.994L91.3878 186.894L93.9714 190.578L96.7702 194.045L98.2773 195.778L99.3538 196.862V197.295L100.215 197.729L101.076 198.595V199.029L101.937 199.462L103.66 201.196L106.028 203.146L109.042 205.313L111.841 207.046L115.501 208.779L115.716 209.43L113.348 210.08L108.181 210.946L102.153 211.596H91.3878L85.3595 210.73L81.9148 209.646L77.8241 207.696L78.6853 211.596L80.4077 215.497L82.1301 218.53L83.6371 220.48V220.914L82.3454 220.697L76.1018 217.88L72.657 215.93L69.8582 213.98L67.4899 212.03L64.691 209.213L62.3228 205.963L60.6004 202.496L59.5239 199.245L59.0933 196.862V191.445L54.7874 191.011L49.405 189.711L45.7449 188.411L41.439 186.461L37.1331 184.078L32.8272 181.044L29.5977 178.227L27.4447 176.277L24.8612 173.677L24 172.377V171.943L26.3683 172.377L32.1813 173.243H36.7025L40.5778 172.593L43.592 171.51L46.6061 169.343L48.7591 167.176V166.093L46.3908 162.409L44.2379 158.726L41.8696 153.525L40.3625 148.975L39.0708 143.558L38.2096 137.491L37.9943 134.457V127.74L38.4249 122.54L39.2861 116.906L40.7931 110.839L41.2237 110.189L41.8696 110.406L42.7308 112.789L44.8838 118.856L46.6061 122.323L47.6826 124.057L47.8979 123.19L48.3285 118.856L49.1897 115.173L50.4815 111.922L52.4191 108.239L54.1415 105.422L56.7251 100.438L58.0168 96.5379L58.6627 93.5043V87.4372L58.0168 84.6203V83.9703L59.0933 84.1869L61.6769 86.7871L64.2605 90.4707L66.1981 93.9377L67.7052 97.4046L68.5664 100.438L68.997 102.822V105.422H68.5664L68.1358 106.505L66.6287 108.022L65.5522 109.322H65.1216L64.9063 102.822L64.0452 98.7047L63.184 96.3212L62.9687 95.6711L60.8157 101.955L59.0933 105.639L57.1557 108.889L55.4333 111.706L53.7109 116.039L52.4191 120.59L52.2038 121.89V124.273L53.065 127.74L54.7874 131.64L56.7251 135.324V135.974L55.218 135.757L51.7733 134.241L49.405 132.724L47.252 130.774L44.6685 127.09L42.7308 123.84L42.5155 124.923L42.3002 130.34L42.5155 135.541L43.1614 140.958L44.0226 145.291L45.5297 150.492L47.252 154.825L49.1897 158.942L52.4191 164.143L54.3568 166.743L56.5098 169.56L56.7251 170.21H57.1557V171.077L50.9121 171.293L49.1897 173.027L47.0367 174.544L44.2379 175.844L41.2237 176.71L38.4249 177.144L35.1954 177.36L38.2096 179.527L41.439 181.477L45.9602 183.644L51.1274 185.378L55.8639 186.244H59.7392L62.5381 185.811H63.6146L63.8299 186.461L63.184 190.795V195.128L63.8299 198.595L65.1216 202.062L66.6287 204.879L68.7817 207.696L70.9346 209.863L73.3029 211.596L74.5947 212.463L73.5182 208.779L72.4417 204.446L72.2264 202.496V196.212L72.8723 196.429L74.3794 198.812L76.3171 200.979L78.47 202.712L82.3454 204.879L85.5748 206.179L89.2348 207.046L95.0479 207.479H100.43L103.444 207.263L104.521 207.046L101.507 204.879L98.2773 202.062L93.7561 197.512L91.3878 194.478L89.4501 192.095L86.0054 186.894L83.8524 183.211L81.2689 177.794L79.1159 171.727L77.8241 166.526L76.9629 161.543L76.7477 159.376V150.492L77.8241 143.991L79.3312 138.791L81.2689 134.241L83.6371 129.69L85.1442 127.523L87.7278 124.057L90.7419 120.806L93.3255 118.206L96.3396 115.823L99.5691 113.656L104.521 111.056L108.827 109.322L113.348 108.022L117.654 107.155L121.314 106.722H128.849L134.017 107.372L138.968 108.455L143.059 109.755L146.288 111.056L150.379 113.006L154.039 115.389L156.407 117.123L159.206 119.506L161.79 121.89L163.512 123.623L165.019 125.357L168.033 129.04L170.832 133.157L173.416 136.841L174.062 137.708L174.492 133.374V129.04L174.062 124.49L173.201 119.723L171.909 114.523L170.402 110.189L168.464 105.855L166.311 101.955L164.589 99.5714L162.005 96.5379L160.498 95.0211L158.345 93.5043L156.407 87.2205L154.47 82.4535L152.532 79.2032L151.025 77.2531L148.657 74.6529L148.011 74.0029L147.796 77.6865L147.15 81.1534L145.858 84.4036L143.92 87.4372L142.413 89.604L140.906 91.9875H140.475L140.045 86.3538L139.184 83.3202L137.677 81.1534L135.308 79.2032L131.218 77.0364L125.835 75.0863L122.606 74.2195L123.898 75.953L125.62 78.9866L126.912 82.4535L127.773 87.6539V89.604L126.912 89.1706L124.759 86.3538L121.96 83.5369L120.453 82.4535L116.577 81.1534L104.951 78.3365L99.7844 76.6031L96.3396 74.8696L93.1102 72.7028L90.3113 70.3193L86.8666 66.8523L84.4983 63.6021L82.3454 59.9185L80.623 55.5848L78.9006 49.5177L78.2547 49.3011L77.6088 51.4679L75.8865 57.1016L74.3794 63.3854L73.3029 69.6692L72.8723 74.2195V81.3701L73.5182 88.0872L75.2406 98.9214L75.4559 101.522L74.5947 101.305L71.1499 96.1045L70.0735 94.371L69.4276 91.9875L68.7817 87.0038L68.3511 79.8533V74.4362L68.7817 69.4525L69.6429 64.0355L70.9346 58.4017L72.8723 52.1179L74.81 47.5676L76.5324 44.1007L78.2547 41.0671L80.8383 37.6002L82.776 35.2167L82.9912 35Z" fill="#FDFCFC"/>
<path d="M82.9912 35H83.4218V37.1668L83.2065 38.4669V45.8341L84.283 51.2512L85.5748 55.1515L87.7278 59.7018L89.8807 62.7354L92.249 65.5522L94.6173 67.9358L98.2773 70.5359L101.722 72.2694L105.167 73.5695L115.932 76.1697L119.376 76.8197L119.807 77.0364L118.085 74.6529L114.855 71.4027L112.487 69.4525L112.056 68.5858L115.716 68.8025L120.668 69.6692L128.419 71.6194L133.801 73.5695L138.322 75.953L141.121 78.1198L142.844 79.8533L143.274 80.07L143.49 77.4698V74.4362L142.628 70.5359L140.906 66.6357L141.121 65.7689L145.427 67.7191L147.15 68.5858L150.164 70.7526L152.963 73.3528L155.761 76.8197L157.699 80.07L159.422 83.7536L161.574 89.8207L162.22 90.6874V91.1208H162.651L163.512 92.2042L165.235 93.721L167.603 96.3212L169.756 99.138L171.909 102.388L174.492 107.589L175.999 111.489L177.291 116.473L178.368 121.89L178.798 126.223V132.724L178.152 139.441L176.948 146.659L175.939 150.214L175.569 149.625L169.54 139.658L166.311 134.891L162.866 130.34L160.283 127.307L156.623 123.623L154.254 121.673L151.025 119.29L147.796 117.339L144.351 115.606L141.121 114.306L136.815 113.006L132.294 112.139L128.204 111.706H123.252L117.654 112.356L112.702 113.439L107.535 115.173L103.014 117.339L99.3538 119.723L96.3396 122.106L93.5408 124.707L90.9572 127.74L88.8043 130.774L86.8666 134.024L84.283 139.441L82.9912 143.558L82.1301 147.892L81.6995 151.575V158.292L82.1301 162.626L82.9912 167.393L84.4983 172.593L86.436 177.794L89.0195 182.994L91.3878 186.894L93.9714 190.578L96.7702 194.045L98.2773 195.778L99.3538 196.862V197.295L100.215 197.729L101.076 198.595V199.029L101.937 199.462L103.66 201.196L106.028 203.146L109.042 205.313L111.841 207.046L115.501 208.779L115.716 209.43L113.348 210.08L108.181 210.946L102.153 211.596H91.3878L85.3595 210.73L81.9148 209.646L77.8241 207.696L78.6853 211.596L80.4077 215.497L82.1301 218.53L83.6371 220.48V220.914L82.3454 220.697L76.1018 217.88L72.657 215.93L69.8582 213.98L67.4899 212.03L64.691 209.213L62.3228 205.963L60.6004 202.496L59.5239 199.245L59.0933 196.862V191.445L54.7874 191.011L49.405 189.711L45.7449 188.411L41.439 186.461L37.1331 184.078L32.8272 181.044L29.5977 178.227L27.4447 176.277L24.8612 173.677L24 172.377V171.943L26.3683 172.377L32.1813 173.243H36.7025L40.5778 172.593L43.592 171.51L46.6061 169.343L48.7591 167.176V166.093L46.3908 162.409L44.2379 158.726L41.8696 153.525L40.3625 148.975L39.0708 143.558L38.2096 137.491L37.9943 134.457V127.74L38.4249 122.54L39.2861 116.906L40.7931 110.839L41.2237 110.189L41.8696 110.406L42.7308 112.789L44.8838 118.856L46.6061 122.323L47.6826 124.057L47.8979 123.19L48.3285 118.856L49.1897 115.173L50.4815 111.922L52.4191 108.239L54.1415 105.422L56.7251 100.438L58.0168 96.5379L58.6627 93.5043V87.4372L58.0168 84.6203V83.9703L59.0933 84.1869L61.6769 86.7871L64.2605 90.4707L66.1981 93.9377L67.7052 97.4046L68.5664 100.438L68.997 102.822V105.422H68.5664L68.1358 106.505L66.6287 108.022L65.5522 109.322H65.1216L64.9063 102.822L64.0452 98.7047L63.184 96.3212L62.9687 95.6711L60.8157 101.955L59.0933 105.639L57.1557 108.889L55.4333 111.706L53.7109 116.039L52.4191 120.59L52.2038 121.89V124.273L53.065 127.74L54.7874 131.64L56.7251 135.324V135.974L55.218 135.757L51.7733 134.241L49.405 132.724L47.252 130.774L44.6685 127.09L42.7308 123.84L42.5155 124.923L42.3002 130.34L42.5155 135.541L43.1614 140.958L44.0226 145.291L45.5297 150.492L47.252 154.825L49.1897 158.942L52.4191 164.143L54.3568 166.743L56.5098 169.56L56.7251 170.21H57.1557V171.077L50.9121 171.293L49.1897 173.027L47.0367 174.544L44.2379 175.844L41.2237 176.71L38.4249 177.144L35.1954 177.36L38.2096 179.527L41.439 181.477L45.9602 183.644L51.1274 185.378L55.8639 186.244H59.7392L62.5381 185.811H63.6146L63.8299 186.461L63.184 190.795V195.128L63.8299 198.595L65.1216 202.062L66.6287 204.879L68.7817 207.696L70.9346 209.863L73.3029 211.596L74.5947 212.463L73.5182 208.779L72.4417 204.446L72.2264 202.496V196.212L72.8723 196.429L74.3794 198.812L76.3171 200.979L78.47 202.712L82.3454 204.879L85.5748 206.179L89.2348 207.046L95.0479 207.479H100.43L103.444 207.263L104.521 207.046L101.507 204.879L98.2773 202.062L93.7561 197.512L91.3878 194.478L89.4501 192.095L86.0054 186.894L83.8524 183.211L81.2689 177.794L79.1159 171.727L77.8241 166.526L76.9629 161.543L76.7477 159.376V150.492L77.8241 143.991L79.3312 138.791L81.2689 134.241L83.6371 129.69L85.1442 127.523L87.7278 124.057L90.7419 120.806L93.3255 118.206L96.3396 115.823L99.5691 113.656L104.521 111.056L108.827 109.322L113.348 108.022L117.654 107.155L121.314 106.722H128.849L134.017 107.372L138.968 108.455L143.059 109.755L146.288 111.056L150.379 113.006L154.039 115.389L156.407 117.123L159.206 119.506L161.79 121.89L163.512 123.623L165.019 125.357L168.033 129.04L170.832 133.157L173.416 136.841L174.062 137.708L174.492 133.374V129.04L174.062 124.49L173.201 119.723L171.909 114.523L170.402 110.189L168.464 105.855L166.311 101.955L164.589 99.5714L162.005 96.5379L160.498 95.0211L158.345 93.5043L156.407 87.2205L154.47 82.4535L152.532 79.2032L151.025 77.2531L148.657 74.6529L148.011 74.0029L147.796 77.6865L147.15 81.1534L145.858 84.4036L143.92 87.4372L142.413 89.604L140.906 91.9875H140.475L140.045 86.3538L139.184 83.3202L137.677 81.1534L135.308 79.2032L131.218 77.0364L125.835 75.0863L122.606 74.2195L123.898 75.953L125.62 78.9866L126.912 82.4535L127.773 87.6539V89.604L126.912 89.1706L124.759 86.3538L121.96 83.5369L120.453 82.4535L116.577 81.1534L104.951 78.3365L99.7844 76.6031L96.3396 74.8696L93.1102 72.7028L90.3113 70.3193L86.8666 66.8523L84.4983 63.6021L82.3454 59.9185L80.623 55.5848L78.9006 49.5177L78.2547 49.3011L77.6088 51.4679L75.8865 57.1016L74.3794 63.3854L73.3029 69.6692L72.8723 74.2195V81.3701L73.5182 88.0872L75.2406 98.9214L75.4559 101.522L74.5947 101.305L71.1499 96.1045L70.0735 94.371L69.4276 91.9875L68.7817 87.0038L68.3511 79.8533V74.4362L68.7817 69.4525L69.6429 64.0355L70.9346 58.4017L72.8723 52.1179L74.81 47.5676L76.5324 44.1007L78.2547 41.0671L80.8383 37.6002L82.776 35.2167L82.9912 35Z" stroke="#CE4945" stroke-width="4" mask="url(#path-6-outside-1_75_22)"/>
</g>
</g>
<defs>
<filter id="filter0_d_75_22" x="-20" y="-16" width="392" height="392" filterUnits="userSpaceOnUse" color-interpolation-filters="sRGB">
<feFlood flood-opacity="0" result="BackgroundImageFix"/>
<feColorMatrix in="SourceAlpha" type="matrix" values="0 0 0 0 0 0 0 0 0 0 0 0 0 0 0 0 0 0 127 0" result="hardAlpha"/>
<feOffset dy="4"/>
<feGaussianBlur stdDeviation="10"/>
<feComposite in2="hardAlpha" operator="out"/>
<feColorMatrix type="matrix" values="0 0 0 0 0.807843 0 0 0 0 0.286275 0 0 0 0 0.270588 0 0 0 0.5 0"/>
<feBlend mode="normal" in2="BackgroundImageFix" result="effect1_dropShadow_75_22"/>
<feBlend mode="normal" in="SourceGraphic" in2="effect1_dropShadow_75_22" result="shape"/>
</filter>
<filter id="filter1_dd_75_22" x="42.5874" y="34.9516" width="300.413" height="296.519" filterUnits="userSpaceOnUse" color-interpolation-filters="sRGB">
<feFlood flood-opacity="0" result="BackgroundImageFix"/>
<feColorMatrix in="SourceAlpha" type="matrix" values="0 0 0 0 0 0 0 0 0 0 0 0 0 0 0 0 0 0 127 0" result="hardAlpha"/>
<feOffset/>
<feGaussianBlur stdDeviation="7.5"/>
<feComposite in2="hardAlpha" operator="out"/>
<feColorMatrix type="matrix" values="0 0 0 0 0.992157 0 0 0 0 0.988235 0 0 0 0 0.988235 0 0 0 0.5 0"/>
<feBlend mode="normal" in2="BackgroundImageFix" result="effect1_dropShadow_75_22"/>
<feColorMatrix in="SourceAlpha" type="matrix" values="0 0 0 0 0 0 0 0 0 0 0 0 0 0 0 0 0 0 127 0" result="hardAlpha"/>
<feOffset/>
<feGaussianBlur stdDeviation="3.75"/>
<feComposite in2="hardAlpha" operator="out"/>
<feColorMatrix type="matrix" values="0 0 0 0 0.435294 0 0 0 0 0.384314 0 0 0 0 0.831373 0 0 0 0.5 0"/>
<feBlend mode="normal" in2="effect1_dropShadow_75_22" result="effect2_dropShadow_75_22"/>
<feBlend mode="normal" in="SourceGraphic" in2="effect2_dropShadow_75_22" result="shape"/>
</filter>
<filter id="filter2_d_75_22" x="2" y="13" width="198.798" height="230.277" filterUnits="userSpaceOnUse" color-interpolation-filters="sRGB">
<feFlood flood-opacity="0" result="BackgroundImageFix"/>
<feColorMatrix in="SourceAlpha" type="matrix" values="0 0 0 0 0 0 0 0 0 0 0 0 0 0 0 0 0 0 127 0" result="hardAlpha"/>
<feOffset/>
<feGaussianBlur stdDeviation="10"/>
<feComposite in2="hardAlpha" operator="out"/>
<feColorMatrix type="matrix" values="0 0 0 0 0.811765 0 0 0 0 0.286275 0 0 0 0 0.27451 0 0 0 1 0"/>
<feBlend mode="normal" in2="BackgroundImageFix" result="effect1_dropShadow_75_22"/>
<feBlend mode="normal" in="SourceGraphic" in2="effect1_dropShadow_75_22" result="shape"/>
</filter>
<clipPath id="clip0_75_22">
<rect width="352" height="352" fill="white"/>
</clipPath>
</defs>
</svg>
