<svg width="352" height="352" viewBox="0 0 352 352" fill="none" xmlns="http://www.w3.org/2000/svg">
<g clip-path="url(#clip0_75_48)">
<rect width="352" height="352" fill="black"/>
<g filter="url(#filter0_dd_75_48)">
<path d="M291.397 32.8363H293.431L296.018 33.2084L298.421 34.1385L300.27 35.2548L302.488 37.1151L303.967 39.1615L305.261 41.766L305.815 43.8123L306 45.1146V48.6492L305.261 51.4398L303.782 54.2303L301.749 56.4627L299.9 57.951L297.312 59.2532L295.649 59.8113L294.54 59.9973L290.288 60.1834L288.809 61.6717L287.516 63.1599L285.482 65.3923L284.188 66.8806L281.97 69.4851L280.307 71.3455L279.013 72.8337L277.349 74.6941L276.055 76.1824L273.837 78.7868L273.098 80.0891L274.761 81.9494L276.24 83.8098L278.643 86.9724L281.046 90.693L282.894 94.0417L284.743 98.1344L286.222 102.599L287.331 107.808L287.885 112.273L288.07 115.064V121.017L287.516 126.784L286.406 132.179L284.928 137.016L283.079 141.853L280.491 147.062L278.273 150.782L275.685 154.503L273.652 157.107L271.989 159.154L270.325 161.014L269.031 162.502L262.746 168.828L261.268 170.13L258.68 172.362L256.277 174.409L253.134 177.013L250.177 179.432L247.219 181.664L242.044 185.757L239.641 187.617L237.053 189.663L234.65 191.524L231.323 194.128L228.18 196.733L222.265 201.57L219.862 203.616L217.829 205.29L212.653 209.755L209.881 212.36L206.738 215.336L199.345 222.778L198.051 224.266L196.387 226.126L194.723 228.173L192.505 230.777L190.102 233.94L188.254 236.358L186.036 239.521L184.002 242.683L181.969 246.032L179.936 249.753L177.533 254.962L175.5 259.612L174.575 261.659H174.206L172.172 257.008L170.139 252.729L168.106 248.822L165.148 243.986L162.93 240.823L161.267 238.591L158.864 235.614L156.645 233.196L155.352 231.893L154.058 230.405L151.655 228.173L149.621 226.312L147.588 224.638L145.185 222.592L142.782 220.731L141.303 219.429L141.488 219.057L143.706 219.615L147.033 221.103L150.361 222.964L152.949 224.638L154.982 225.94L153.133 222.592L151.1 219.429L148.882 215.708V214.964L149.806 215.15L152.024 217.197L153.503 218.499L155.352 220.359L156.645 221.847L158.309 223.708L160.342 226.312L162.56 229.289L165.148 233.196L167.366 237.102L169.585 241.381L171.988 246.776L174.206 252.357L175.5 249.753L177.348 245.474L179.936 240.265L181.784 237.102L183.263 234.87L185.666 231.521L188.254 228.173L190.287 225.754L191.951 223.708L194.354 221.289L195.648 219.801L198.79 216.638L200.084 215.15L201.563 213.848L204.52 210.871H204.89L205.075 210.313L206.553 209.011L208.956 206.779L210.435 205.476L212.469 203.616L214.502 201.942L216.35 200.267L218.384 198.593L220.787 196.547L222.45 195.244L227.071 191.524L229.474 189.663L232.062 187.617L234.465 185.757L237.423 183.524L240.01 181.478L242.413 179.618L245.741 177.013L248.328 174.967L251.471 172.362L253.319 170.874L255.722 168.828L257.755 167.153L259.789 165.293L261.268 163.991L263.116 162.316L266.813 158.596L268.477 156.549L270.325 154.503L272.358 151.712L274.946 147.806L276.979 144.271L279.013 139.992L280.676 135.527L281.97 131.063L283.079 125.295L283.449 121.761V113.203L282.894 108.552L281.97 104.274L280.676 100.367L279.013 96.4601L276.795 92.7394L274.946 90.1349L272.543 87.1584L270.879 85.112L269.77 83.9958L269.031 84.3679L267.183 86.2282L265.519 88.2746L264.04 89.9489L263.855 90.693L265.889 92.9255L268.292 96.0881L270.51 99.6227L272.913 104.646L274.392 109.297L275.316 113.761L275.685 117.296V123.435L275.131 128.086L274.207 132.551L272.728 137.388L270.695 142.039L268.661 145.945L266.628 149.294L265.149 151.526L262.561 155.061L261.083 156.921L259.419 158.968L257.201 161.572L255.168 163.805L253.874 165.293L249.253 169.944L247.774 171.246L245.556 173.292L244.077 174.595L241.489 176.827L238.716 179.245L236.683 180.92L234.835 182.594L232.801 184.268L229.844 186.687L226.702 189.105L223.19 191.71L219.493 194.5L212.838 199.337L209.696 201.57L203.041 206.407L199.345 209.011L196.757 210.871L193.245 213.476L190.657 215.522L188.254 217.569L184.557 220.917L182.893 222.778L180.86 225.196L178.457 228.545L176.239 232.079L174.575 234.87H174.021L172.727 232.079L170.324 227.428L168.106 224.08L165.888 221.103L163.67 218.499L156.276 211.057L154.797 209.755L153.503 208.453L152.024 207.151L149.806 204.918V204.732L151.655 204.918L154.982 206.221L157.939 207.709L161.082 209.755L163.3 211.429L165.148 213.104L166.627 214.406L168.845 216.638L170.509 218.685L172.357 221.103L174.391 224.452L174.945 225.196V225.568H175.315L175.684 224.638L178.272 221.103L180.121 219.057L181.415 217.569L184.372 214.592L186.405 212.918L188.069 211.429L191.211 209.011L194.723 206.407L198.051 203.988L201.008 201.942L204.335 199.523L207.293 197.477L210.62 195.058L213.762 192.826L217.09 190.408L220.602 187.803L223.929 185.199L226.517 183.152L229.474 180.734L231.877 178.687L233.911 177.013L236.314 174.967L238.162 173.478L240.01 171.804L242.044 170.13L244.816 167.525L247.035 165.479L252.765 159.712L254.059 158.224L256.277 155.805L260.343 150.596L262.007 148.178L264.225 144.643L265.889 141.667L267.737 137.574L269.77 131.435L270.695 126.598L271.064 122.505V119.156L270.695 115.25L269.586 110.227L267.922 105.204L266.443 102.227L264.78 99.4367L263.116 97.2043L261.452 95.1579L260.713 94.4137L259.974 94.5998L258.31 96.2741L257.016 97.7624L254.983 99.9948L253.319 102.041L251.101 104.46L249.807 105.948L248.883 107.064L249.068 107.808L250.731 109.483L252.025 110.971L255.722 114.692L257.016 116.18L259.234 118.598L261.268 121.203L263.116 123.621L263.301 124.365L262.377 124.179L259.419 122.133L255.168 119.156L252.58 117.296L249.253 114.878L246.665 113.017L244.632 111.529L242.044 109.669L241.304 109.11L241.674 108.18L244.077 105.762L245.371 104.274L247.219 102.227L248.513 100.739L251.101 97.9484L253.504 95.3439L254.798 93.8556L257.571 90.8791L259.419 88.8327L260.713 87.3444L262.377 85.4841L263.671 83.9958L265.334 82.1355L267.183 80.0891L268.846 78.0427L271.434 75.2522L273.098 73.2058L275.685 70.4153L276.979 68.927L278.643 67.0667L279.937 65.5784L281.6 63.718L283.634 61.4856L286.037 58.8811V58.323L284.558 57.2068L283.264 56.0906L281.416 53.6722L279.937 50.6956L279.197 48.4632V47.533H278.828L278.458 48.2772L276.055 51.0677L274.392 53.1141L272.543 55.1604L270.879 57.2068L268.477 59.9973L266.813 62.0437L265.149 63.9041L263.486 65.9505L261.822 67.8108L260.158 69.8572L258.495 71.7175L256.831 73.7639L254.613 76.3684L252.95 78.4148L250.916 80.8332L249.253 82.8796L246.85 85.6701L244.816 88.0886L243.153 90.1349L240.935 92.7394L239.271 94.7858L237.238 97.2043L235.574 99.2506L233.171 102.041L231.508 104.088L229.474 106.32L227.811 108.366L226.147 110.227L224.483 112.273L220.047 117.482L218.384 119.528L215.981 122.319L214.317 124.365L212.653 126.226L210.99 128.272L208.772 130.877L207.108 132.923L200.454 140.736L198.42 143.155L196.202 145.759L194.539 147.806L192.505 150.224L190.842 152.27L186.775 157.107L185.112 159.154L182.709 161.944L180.675 164.363L176.239 169.572L173.836 172.362L171.803 174.781L169.585 177.385L167.921 179.432L161.267 187.245L159.603 189.291L157.385 191.896L155.721 193.942L154.058 195.803L152.394 197.849L150.361 200.267L148.697 202.314L146.849 204.546L144.261 208.081L142.043 211.988L140.749 213.476L134.464 217.941L132.061 219.429L129.473 220.917L126.516 222.406L122.264 224.452L117.089 226.684L110.619 229.103L104.334 231.149L96.5709 233.196L87.6983 235.242L77.347 237.288L74.944 237.66H73.835L74.0198 236.916L75.8683 234.87L77.9015 232.265L80.1197 229.661L82.153 227.056L84.0014 225.01L85.4802 223.15L87.5135 220.731L89.5468 218.127L91.7649 215.522L93.4285 213.476L95.4618 211.057L97.1254 209.011L98.9738 206.965L100.637 204.918L102.856 202.314L104.519 200.267L106.922 197.477L108.586 195.43L110.804 192.826L114.87 187.989L116.534 185.943L118.567 183.524L120.231 181.478L122.264 179.059L124.482 176.455L126.146 174.409L128.179 172.176L129.843 170.13L132.061 167.711L133.725 165.665L135.758 163.433L137.422 161.386L139.64 158.782L140.564 157.852H140.934L141.303 163.433L142.043 169.386L142.412 172.548L143.337 171.99L145.555 169.386L147.588 167.153L148.882 165.665L151.285 162.874L153.318 160.642L154.612 159.154L156.83 156.549L158.864 154.317L160.157 152.829L162.376 150.224L164.963 147.434L166.257 145.945L168.106 143.899L169.4 142.411L171.618 139.992L174.021 137.388L175.315 135.899L179.751 131.063L181.784 128.83L184.557 125.854L186.59 123.621L189.917 120.273L191.211 118.784L196.017 113.947L197.496 112.645L200.084 110.041L202.117 108.366L202.857 107.808L203.411 107.994L201.378 110.599L198.79 113.761L197.126 115.808L195.093 118.226L193.43 120.273L191.396 122.691L189.733 124.737L188.069 126.598L186.405 128.644L184.002 131.435L181.784 134.039L180.121 136.085L177.718 138.876L175.5 141.48L173.836 143.527L171.803 145.759L170.139 147.806L168.475 149.666L166.812 151.712L164.409 154.317L162.745 156.363L157.939 161.944L156.276 163.805L154.612 165.851L152.764 167.897L151.1 169.944L149.252 171.99L147.588 174.037L145.924 175.897L144.261 177.943L142.412 179.99L139.085 184.082H138.715L137.606 177.385L136.867 172.734L136.497 171.06L135.758 171.432L133.91 173.478L132.246 175.525L130.213 177.757L128.549 179.804L126.516 182.036L125.222 183.524L123.004 186.129L120.97 188.361L117.273 193.012L115.98 195.058L115.795 196.733L116.534 198.035L118.013 199.151L120.046 199.895L120.97 200.081H123.928L125.776 199.523L127.44 198.407L127.994 198.221L128.364 197.477L129.658 195.617L130.397 193.942L130.582 193.012V189.849H131.137L132.431 191.152L133.91 193.012L135.943 195.617L138.161 198.965L140.934 203.43L141.303 203.802L143.521 201.198L145.185 199.151L147.218 196.919L148.512 195.43L150.73 192.826L153.133 190.035L155.352 187.431L157.754 184.64L159.418 182.78L160.712 181.292L162.376 179.245L164.594 176.827L166.257 174.781L167.921 172.92L169.215 171.432L173.651 166.223L175.684 163.991L177.348 161.944L179.381 159.712L181.045 157.665L182.709 155.805L184.372 153.759L186.036 151.898L187.699 149.852L190.102 147.062L191.766 145.015L193.43 143.155L195.093 141.108L197.126 138.69L198.79 136.644L200.823 134.225L202.487 132.179L204.705 129.574L206.738 126.97L208.402 125.109L210.435 122.505L212.099 120.645L213.762 118.598L215.426 116.738L217.09 114.692L219.123 112.273L220.787 110.227L224.853 105.39L228.18 101.297L230.214 98.8786L231.877 96.8322L234.465 93.6696L236.683 91.0651L238.347 89.0187L240.565 86.4143L244.632 81.5774L245.371 80.2751L238.532 78.0427L232.617 76.5544L228.735 75.9963L222.82 75.8103L218.568 75.9963L214.687 76.5544L210.805 77.6706L208.587 78.6008L206.369 79.717L204.151 81.2053L201.748 83.0656L199.345 85.298L195.833 88.8327L193.799 91.4372L192.505 93.2975L190.842 96.0881L189.363 99.4367L188.254 102.785L187.33 107.436L186.775 112.645L186.405 113.389L185.666 113.017L184.742 110.971L183.633 107.25L183.078 103.901L182.893 102.041V95.902L183.448 90.8791L184.372 86.4143L185.481 82.5075L187.33 78.0427L189.178 74.508L190.657 72.2756L192.32 70.0432L194.354 67.8108L195.648 66.3225L198.235 63.9041L201.563 61.4856L203.966 59.9973L206.738 58.5091L210.435 57.0208L213.578 56.0906L217.274 55.3465L220.602 54.9744H226.517L231.692 55.5325L237.053 56.6487L241.674 57.951L247.589 60.1834L251.286 61.8577L256.646 64.4622L257.94 65.2063L258.68 64.8342L260.528 62.7879L262.192 60.7415L264.04 58.6951L265.704 56.6487L267.737 54.4163L269.401 52.3699L271.249 50.3236L272.913 48.2772L274.946 46.0448L276.24 44.5565L278.458 41.952L280.491 39.7196L282.71 37.3011L284.188 35.8129L286.037 34.5106L288.44 33.3944L291.397 32.8363Z" fill="#FDFCFC"/>
</g>
<path d="M220.973 59.6257H225.594L229.476 59.9978L235.76 61.3L242.23 63.3464L247.221 65.3928L250.363 66.8811L254.43 69.2995L254.245 70.0437L252.581 72.09L250.918 73.9504L249.069 76.3688L248.33 76.5549L241.306 74.1364L236.315 72.8342L231.509 71.904L227.258 71.3459L223.745 71.1599H221.712L216.537 71.5319L211.915 72.4621L207.479 73.9504L203.782 75.8107L201.564 77.299L198.607 79.5314L195.464 82.508L193.801 84.1823L192.137 86.2287L190.104 88.8332L188.255 91.8097L187.516 92.5539L188.07 89.0192L188.81 86.0426L190.658 81.2057L192.322 77.6711L194.17 74.6945L196.388 71.718L198.422 69.4856L200.085 67.8113L202.673 65.7649L205.261 64.0906L209.143 62.2302L212.47 61.114L216.352 60.1838L220.973 59.6257Z" fill="#6F62D4"/>
<path d="M110.435 200.639L111.175 200.825L112.838 202.686L114.871 204.546L117.459 206.22L119.493 207.151L121.896 207.709H124.483L126.886 206.965L128.92 205.662L130.768 203.616L132.801 200.639L133.356 200.825L135.019 204.36L135.759 207.151V209.383L134.835 211.243L133.356 212.732L130.029 215.15L126.332 217.383L122.08 219.615L118.938 221.103L113.947 223.15L108.772 225.01L102.857 226.87L95.2779 228.917L90.4719 230.033L86.775 230.777L86.0356 230.591L87.8841 227.986L91.9507 222.778L93.6143 220.731L96.0173 217.755L98.0506 215.336L99.7142 213.29L101.747 210.871L103.411 208.825L105.444 206.406L107.662 203.802L109.326 201.756L110.435 200.639Z" fill="#6F62D4"/>
<path d="M290.842 37.3011H294.354L296.572 38.0453L298.606 39.3475L300.084 41.0218L301.563 43.9984L301.748 44.9286V48.2772L301.193 50.1375L300.084 51.9979L298.051 54.0443L296.387 54.9744L294.909 55.5325L293.8 55.7186H291.581L289.363 55.1605L287.33 54.0443L286.036 52.9281L284.372 50.6956L283.448 48.2772L283.263 45.6727L283.633 43.8124L284.927 41.2079L286.591 39.3475L288.624 38.0453L290.103 37.4872L290.842 37.3011Z" fill="#6F62D4"/>
<g filter="url(#filter1_d_75_48)">
<mask id="path-6-outside-1_75_48" maskUnits="userSpaceOnUse" x="43" y="18" width="137" height="164" fill="black">
<rect fill="white" x="43" y="18" width="137" height="164"/>
<path d="M95.6475 20H96.0172V21.8603L95.8323 22.9766V29.3017L96.7565 33.9526L97.8656 37.3012L99.7141 41.2079L101.563 43.8124L103.596 46.2309L105.629 48.2772L108.771 50.5097L111.729 51.9979L114.687 53.1141L123.929 55.3466L126.886 55.9047L127.256 56.0907L125.777 54.0443L123.005 51.2538L120.971 49.5795L120.602 48.8354L123.744 49.0214L127.995 49.7655L134.65 51.4398L139.271 53.1141L143.153 55.1605L145.556 57.0209L147.034 58.5091L147.404 58.6952L147.589 56.4628V53.8583L146.849 50.5097L145.371 47.161L145.556 46.4169L149.252 48.0912L150.731 48.8354L153.319 50.6957L155.722 52.9281L158.125 55.9047L159.789 58.6952L161.267 61.8578L163.116 67.0667L163.67 67.8109V68.1829H164.04L164.779 69.1131L166.258 70.4154L168.291 72.6478L170.14 75.0662L171.988 77.8567L174.207 82.3216L175.5 85.6702L176.61 89.949L177.534 94.5998L177.903 98.3205V103.902L177.349 109.669L176.315 115.866L175.448 118.918L175.131 118.412L169.955 109.855L167.182 105.762L164.225 101.855L162.007 99.2507L158.864 96.0881L156.831 94.4138L154.058 92.3674L151.286 90.6931L148.328 89.2048L145.556 88.0886L141.859 86.9724L137.977 86.2283L134.465 85.8562H130.213L125.408 86.4143L121.156 87.3445L116.72 88.8328L112.838 90.6931L109.696 92.7395L107.108 94.7859L104.705 97.0183L102.487 99.6228L100.638 102.227L98.9747 105.018L96.7565 109.669L95.6475 113.203L94.9081 116.924L94.5384 120.087V125.854L94.9081 129.574L95.6475 133.667L96.9414 138.132L98.605 142.597L100.823 147.062L102.856 150.41L105.075 153.573L107.478 156.549L108.771 158.038L109.696 158.968V159.34L110.435 159.712L111.174 160.456V160.828L111.914 161.2L113.393 162.688L115.426 164.363L118.014 166.223L120.417 167.711L123.559 169.2L123.744 169.758L121.711 170.316L117.274 171.06L112.099 171.618H102.856L97.6808 170.874L94.7233 169.944L91.2112 168.27L91.9506 171.618L93.4293 174.967L94.9081 177.571L96.202 179.246V179.618L95.0929 179.432L89.7324 177.013L86.7749 175.339L84.3719 173.665L82.3387 171.99L79.9357 169.572L77.9024 166.781L76.4236 163.805L75.4994 161.014L75.1297 158.968V154.317L71.4328 153.945L66.8117 152.829L63.6693 151.712L59.9724 150.038L56.2755 147.992L52.5786 145.387L49.806 142.969L47.9575 141.295L45.7394 139.062L45 137.946V137.574L47.0333 137.946L52.0241 138.69H55.9058L59.233 138.132L61.8209 137.202L64.4087 135.341L66.2572 133.481V132.551L64.2239 129.388L62.3754 126.226L60.3421 121.761L59.0482 117.854L57.9391 113.203L57.1998 107.994L57.0149 105.39V99.6228L57.3846 95.158L58.124 90.3211L59.4179 85.1121L59.7876 84.554L60.3421 84.74L61.0815 86.7864L62.9299 91.9954L64.4087 94.9719L65.3329 96.4602L65.5178 95.716L65.8875 91.9954L66.6268 88.8328L67.7359 86.0423L69.3995 82.8797L70.8783 80.4612L73.0964 76.1824L74.2055 72.8338L74.76 70.2293V65.0204L74.2055 62.6019V62.0438L75.1297 62.2298L77.3478 64.4622L79.566 67.6248L81.2296 70.6014L82.5235 73.5779L83.2629 76.1824L83.6326 78.2288V80.4612H83.2629L82.8932 81.3914L81.5993 82.6936L80.675 83.8098H80.3054L80.1205 78.2288L79.3811 74.6941L78.6418 72.6478L78.4569 72.0897L76.6085 77.4847L75.1297 80.6473L73.4661 83.4378L71.9873 85.8562L70.5086 89.5769L69.3995 93.4836L69.2147 94.5998V96.6462L69.9541 99.6228L71.4328 102.971L73.0964 106.134V106.692L71.8025 106.506L68.845 105.204L66.8117 103.902L64.9632 102.227L62.7451 99.0647L61.0815 96.2742L60.8967 97.2043L60.7118 101.855L60.8967 106.32L61.4512 110.971L62.1906 114.692L63.4845 119.156L64.9632 122.877L66.6268 126.412L69.3995 130.877L71.0631 133.109L72.9116 135.527L73.0964 136.086H73.4661V136.83L68.1056 137.016L66.6268 138.504L64.7784 139.806L62.3754 140.922L59.7876 141.667L57.3846 142.039L54.6119 142.225L57.1998 144.085L59.9724 145.759L63.8542 147.62L68.2904 149.108L72.357 149.852H75.6842L78.0872 149.48H79.0114L79.1963 150.038L78.6418 153.759V157.48L79.1963 160.456L80.3054 163.433L81.5993 165.851L83.4477 168.27L85.2962 170.13L87.3295 171.618L88.4385 172.362L87.5143 169.2L86.5901 165.479L86.4052 163.805V158.41L86.9598 158.596L88.2537 160.642L89.9173 162.502L91.7657 163.991L95.0929 165.851L97.8656 166.967L101.008 167.711L105.999 168.083H110.62L113.208 167.897L114.132 167.711L111.544 165.851L108.771 163.433L104.89 159.526L102.856 156.921L101.193 154.875L98.2353 150.41L96.3869 147.248L94.1687 142.597L92.3203 137.388L91.2112 132.923L90.4718 128.644L90.287 126.784V119.156L91.2112 113.575L92.5051 109.111L94.1687 105.204L96.202 101.297L97.4959 99.4367L99.7141 96.4602L102.302 93.6697L104.52 91.4373L107.108 89.3909L109.881 87.5305L114.132 85.2981L117.829 83.8098L121.711 82.6936L125.408 81.9495L128.55 81.5774H135.019L139.456 82.1355L143.707 83.0657L147.219 84.1819L149.992 85.2981L153.504 86.9724L156.646 89.0188L158.68 90.5071L161.083 92.5535L163.301 94.5998L164.779 96.0881L166.073 97.5764L168.661 100.739L171.064 104.274L173.282 107.436L173.837 108.18L174.207 104.46V100.739L173.837 96.8323L173.097 92.7395L171.988 88.2747L170.694 84.554L169.031 80.8333L167.182 77.4847L165.704 75.4383L163.486 72.8338L162.192 71.5316L160.343 70.2293L158.68 64.8343L157.016 60.7416L155.352 57.951L154.058 56.2767L152.025 54.0443L151.471 53.4862L151.286 56.6488L150.731 59.6254L149.622 62.4159L147.959 65.0204L146.665 66.8807L145.371 68.9271H145.001L144.631 64.0902L143.892 61.4857L142.598 59.6254L140.565 57.951L137.053 56.0907L132.432 54.4164L129.659 53.6722L130.768 55.1605L132.247 57.765L133.356 60.7416L134.095 65.2064V66.8807L133.356 66.5086L131.507 64.0902L129.104 61.6717L127.81 60.7416L124.483 59.6254L114.502 57.2069L110.065 55.7186L107.108 54.2304L104.335 52.37L101.932 50.3236L98.9747 47.3471L96.9414 44.5566L95.0929 41.394L93.6142 37.6733L92.1354 32.4643L91.5809 32.2783L91.0264 34.1386L89.5476 38.9755L88.2537 44.3705L87.3295 49.7655L86.9598 53.6722V59.8114L87.5143 65.5785L88.9931 74.8802L89.1779 77.1126L88.4385 76.9266L85.481 72.4617L84.5568 70.9735L84.0023 68.9271L83.4477 64.6483L83.078 58.5091V53.8583L83.4477 49.5795L84.1871 44.9286L85.2962 40.0917L86.9598 34.6967L88.6234 30.79L90.1021 27.8134L91.5809 25.209L93.799 22.2324L95.4626 20.186L95.6475 20Z"/>
</mask>
<path d="M95.6475 20H96.0172V21.8603L95.8323 22.9766V29.3017L96.7565 33.9526L97.8656 37.3012L99.7141 41.2079L101.563 43.8124L103.596 46.2309L105.629 48.2772L108.771 50.5097L111.729 51.9979L114.687 53.1141L123.929 55.3466L126.886 55.9047L127.256 56.0907L125.777 54.0443L123.005 51.2538L120.971 49.5795L120.602 48.8354L123.744 49.0214L127.995 49.7655L134.65 51.4398L139.271 53.1141L143.153 55.1605L145.556 57.0209L147.034 58.5091L147.404 58.6952L147.589 56.4628V53.8583L146.849 50.5097L145.371 47.161L145.556 46.4169L149.252 48.0912L150.731 48.8354L153.319 50.6957L155.722 52.9281L158.125 55.9047L159.789 58.6952L161.267 61.8578L163.116 67.0667L163.67 67.8109V68.1829H164.04L164.779 69.1131L166.258 70.4154L168.291 72.6478L170.14 75.0662L171.988 77.8567L174.207 82.3216L175.5 85.6702L176.61 89.949L177.534 94.5998L177.903 98.3205V103.902L177.349 109.669L176.315 115.866L175.448 118.918L175.131 118.412L169.955 109.855L167.182 105.762L164.225 101.855L162.007 99.2507L158.864 96.0881L156.831 94.4138L154.058 92.3674L151.286 90.6931L148.328 89.2048L145.556 88.0886L141.859 86.9724L137.977 86.2283L134.465 85.8562H130.213L125.408 86.4143L121.156 87.3445L116.72 88.8328L112.838 90.6931L109.696 92.7395L107.108 94.7859L104.705 97.0183L102.487 99.6228L100.638 102.227L98.9747 105.018L96.7565 109.669L95.6475 113.203L94.9081 116.924L94.5384 120.087V125.854L94.9081 129.574L95.6475 133.667L96.9414 138.132L98.605 142.597L100.823 147.062L102.856 150.41L105.075 153.573L107.478 156.549L108.771 158.038L109.696 158.968V159.34L110.435 159.712L111.174 160.456V160.828L111.914 161.2L113.393 162.688L115.426 164.363L118.014 166.223L120.417 167.711L123.559 169.2L123.744 169.758L121.711 170.316L117.274 171.06L112.099 171.618H102.856L97.6808 170.874L94.7233 169.944L91.2112 168.27L91.9506 171.618L93.4293 174.967L94.9081 177.571L96.202 179.246V179.618L95.0929 179.432L89.7324 177.013L86.7749 175.339L84.3719 173.665L82.3387 171.99L79.9357 169.572L77.9024 166.781L76.4236 163.805L75.4994 161.014L75.1297 158.968V154.317L71.4328 153.945L66.8117 152.829L63.6693 151.712L59.9724 150.038L56.2755 147.992L52.5786 145.387L49.806 142.969L47.9575 141.295L45.7394 139.062L45 137.946V137.574L47.0333 137.946L52.0241 138.69H55.9058L59.233 138.132L61.8209 137.202L64.4087 135.341L66.2572 133.481V132.551L64.2239 129.388L62.3754 126.226L60.3421 121.761L59.0482 117.854L57.9391 113.203L57.1998 107.994L57.0149 105.39V99.6228L57.3846 95.158L58.124 90.3211L59.4179 85.1121L59.7876 84.554L60.3421 84.74L61.0815 86.7864L62.9299 91.9954L64.4087 94.9719L65.3329 96.4602L65.5178 95.716L65.8875 91.9954L66.6268 88.8328L67.7359 86.0423L69.3995 82.8797L70.8783 80.4612L73.0964 76.1824L74.2055 72.8338L74.76 70.2293V65.0204L74.2055 62.6019V62.0438L75.1297 62.2298L77.3478 64.4622L79.566 67.6248L81.2296 70.6014L82.5235 73.5779L83.2629 76.1824L83.6326 78.2288V80.4612H83.2629L82.8932 81.3914L81.5993 82.6936L80.675 83.8098H80.3054L80.1205 78.2288L79.3811 74.6941L78.6418 72.6478L78.4569 72.0897L76.6085 77.4847L75.1297 80.6473L73.4661 83.4378L71.9873 85.8562L70.5086 89.5769L69.3995 93.4836L69.2147 94.5998V96.6462L69.9541 99.6228L71.4328 102.971L73.0964 106.134V106.692L71.8025 106.506L68.845 105.204L66.8117 103.902L64.9632 102.227L62.7451 99.0647L61.0815 96.2742L60.8967 97.2043L60.7118 101.855L60.8967 106.32L61.4512 110.971L62.1906 114.692L63.4845 119.156L64.9632 122.877L66.6268 126.412L69.3995 130.877L71.0631 133.109L72.9116 135.527L73.0964 136.086H73.4661V136.83L68.1056 137.016L66.6268 138.504L64.7784 139.806L62.3754 140.922L59.7876 141.667L57.3846 142.039L54.6119 142.225L57.1998 144.085L59.9724 145.759L63.8542 147.62L68.2904 149.108L72.357 149.852H75.6842L78.0872 149.48H79.0114L79.1963 150.038L78.6418 153.759V157.48L79.1963 160.456L80.3054 163.433L81.5993 165.851L83.4477 168.27L85.2962 170.13L87.3295 171.618L88.4385 172.362L87.5143 169.2L86.5901 165.479L86.4052 163.805V158.41L86.9598 158.596L88.2537 160.642L89.9173 162.502L91.7657 163.991L95.0929 165.851L97.8656 166.967L101.008 167.711L105.999 168.083H110.62L113.208 167.897L114.132 167.711L111.544 165.851L108.771 163.433L104.89 159.526L102.856 156.921L101.193 154.875L98.2353 150.41L96.3869 147.248L94.1687 142.597L92.3203 137.388L91.2112 132.923L90.4718 128.644L90.287 126.784V119.156L91.2112 113.575L92.5051 109.111L94.1687 105.204L96.202 101.297L97.4959 99.4367L99.7141 96.4602L102.302 93.6697L104.52 91.4373L107.108 89.3909L109.881 87.5305L114.132 85.2981L117.829 83.8098L121.711 82.6936L125.408 81.9495L128.55 81.5774H135.019L139.456 82.1355L143.707 83.0657L147.219 84.1819L149.992 85.2981L153.504 86.9724L156.646 89.0188L158.68 90.5071L161.083 92.5535L163.301 94.5998L164.779 96.0881L166.073 97.5764L168.661 100.739L171.064 104.274L173.282 107.436L173.837 108.18L174.207 104.46V100.739L173.837 96.8323L173.097 92.7395L171.988 88.2747L170.694 84.554L169.031 80.8333L167.182 77.4847L165.704 75.4383L163.486 72.8338L162.192 71.5316L160.343 70.2293L158.68 64.8343L157.016 60.7416L155.352 57.951L154.058 56.2767L152.025 54.0443L151.471 53.4862L151.286 56.6488L150.731 59.6254L149.622 62.4159L147.959 65.0204L146.665 66.8807L145.371 68.9271H145.001L144.631 64.0902L143.892 61.4857L142.598 59.6254L140.565 57.951L137.053 56.0907L132.432 54.4164L129.659 53.6722L130.768 55.1605L132.247 57.765L133.356 60.7416L134.095 65.2064V66.8807L133.356 66.5086L131.507 64.0902L129.104 61.6717L127.81 60.7416L124.483 59.6254L114.502 57.2069L110.065 55.7186L107.108 54.2304L104.335 52.37L101.932 50.3236L98.9747 47.3471L96.9414 44.5566L95.0929 41.394L93.6142 37.6733L92.1354 32.4643L91.5809 32.2783L91.0264 34.1386L89.5476 38.9755L88.2537 44.3705L87.3295 49.7655L86.9598 53.6722V59.8114L87.5143 65.5785L88.9931 74.8802L89.1779 77.1126L88.4385 76.9266L85.481 72.4617L84.5568 70.9735L84.0023 68.9271L83.4477 64.6483L83.078 58.5091V53.8583L83.4477 49.5795L84.1871 44.9286L85.2962 40.0917L86.9598 34.6967L88.6234 30.79L90.1021 27.8134L91.5809 25.209L93.799 22.2324L95.4626 20.186L95.6475 20Z" fill="#FDFCFC"/>
<path d="M95.6475 20H96.0172V21.8603L95.8323 22.9766V29.3017L96.7565 33.9526L97.8656 37.3012L99.7141 41.2079L101.563 43.8124L103.596 46.2309L105.629 48.2772L108.771 50.5097L111.729 51.9979L114.687 53.1141L123.929 55.3466L126.886 55.9047L127.256 56.0907L125.777 54.0443L123.005 51.2538L120.971 49.5795L120.602 48.8354L123.744 49.0214L127.995 49.7655L134.65 51.4398L139.271 53.1141L143.153 55.1605L145.556 57.0209L147.034 58.5091L147.404 58.6952L147.589 56.4628V53.8583L146.849 50.5097L145.371 47.161L145.556 46.4169L149.252 48.0912L150.731 48.8354L153.319 50.6957L155.722 52.9281L158.125 55.9047L159.789 58.6952L161.267 61.8578L163.116 67.0667L163.67 67.8109V68.1829H164.04L164.779 69.1131L166.258 70.4154L168.291 72.6478L170.14 75.0662L171.988 77.8567L174.207 82.3216L175.5 85.6702L176.61 89.949L177.534 94.5998L177.903 98.3205V103.902L177.349 109.669L176.315 115.866L175.448 118.918L175.131 118.412L169.955 109.855L167.182 105.762L164.225 101.855L162.007 99.2507L158.864 96.0881L156.831 94.4138L154.058 92.3674L151.286 90.6931L148.328 89.2048L145.556 88.0886L141.859 86.9724L137.977 86.2283L134.465 85.8562H130.213L125.408 86.4143L121.156 87.3445L116.72 88.8328L112.838 90.6931L109.696 92.7395L107.108 94.7859L104.705 97.0183L102.487 99.6228L100.638 102.227L98.9747 105.018L96.7565 109.669L95.6475 113.203L94.9081 116.924L94.5384 120.087V125.854L94.9081 129.574L95.6475 133.667L96.9414 138.132L98.605 142.597L100.823 147.062L102.856 150.41L105.075 153.573L107.478 156.549L108.771 158.038L109.696 158.968V159.34L110.435 159.712L111.174 160.456V160.828L111.914 161.2L113.393 162.688L115.426 164.363L118.014 166.223L120.417 167.711L123.559 169.2L123.744 169.758L121.711 170.316L117.274 171.06L112.099 171.618H102.856L97.6808 170.874L94.7233 169.944L91.2112 168.27L91.9506 171.618L93.4293 174.967L94.9081 177.571L96.202 179.246V179.618L95.0929 179.432L89.7324 177.013L86.7749 175.339L84.3719 173.665L82.3387 171.99L79.9357 169.572L77.9024 166.781L76.4236 163.805L75.4994 161.014L75.1297 158.968V154.317L71.4328 153.945L66.8117 152.829L63.6693 151.712L59.9724 150.038L56.2755 147.992L52.5786 145.387L49.806 142.969L47.9575 141.295L45.7394 139.062L45 137.946V137.574L47.0333 137.946L52.0241 138.69H55.9058L59.233 138.132L61.8209 137.202L64.4087 135.341L66.2572 133.481V132.551L64.2239 129.388L62.3754 126.226L60.3421 121.761L59.0482 117.854L57.9391 113.203L57.1998 107.994L57.0149 105.39V99.6228L57.3846 95.158L58.124 90.3211L59.4179 85.1121L59.7876 84.554L60.3421 84.74L61.0815 86.7864L62.9299 91.9954L64.4087 94.9719L65.3329 96.4602L65.5178 95.716L65.8875 91.9954L66.6268 88.8328L67.7359 86.0423L69.3995 82.8797L70.8783 80.4612L73.0964 76.1824L74.2055 72.8338L74.76 70.2293V65.0204L74.2055 62.6019V62.0438L75.1297 62.2298L77.3478 64.4622L79.566 67.6248L81.2296 70.6014L82.5235 73.5779L83.2629 76.1824L83.6326 78.2288V80.4612H83.2629L82.8932 81.3914L81.5993 82.6936L80.675 83.8098H80.3054L80.1205 78.2288L79.3811 74.6941L78.6418 72.6478L78.4569 72.0897L76.6085 77.4847L75.1297 80.6473L73.4661 83.4378L71.9873 85.8562L70.5086 89.5769L69.3995 93.4836L69.2147 94.5998V96.6462L69.9541 99.6228L71.4328 102.971L73.0964 106.134V106.692L71.8025 106.506L68.845 105.204L66.8117 103.902L64.9632 102.227L62.7451 99.0647L61.0815 96.2742L60.8967 97.2043L60.7118 101.855L60.8967 106.32L61.4512 110.971L62.1906 114.692L63.4845 119.156L64.9632 122.877L66.6268 126.412L69.3995 130.877L71.0631 133.109L72.9116 135.527L73.0964 136.086H73.4661V136.83L68.1056 137.016L66.6268 138.504L64.7784 139.806L62.3754 140.922L59.7876 141.667L57.3846 142.039L54.6119 142.225L57.1998 144.085L59.9724 145.759L63.8542 147.62L68.2904 149.108L72.357 149.852H75.6842L78.0872 149.48H79.0114L79.1963 150.038L78.6418 153.759V157.48L79.1963 160.456L80.3054 163.433L81.5993 165.851L83.4477 168.27L85.2962 170.13L87.3295 171.618L88.4385 172.362L87.5143 169.2L86.5901 165.479L86.4052 163.805V158.41L86.9598 158.596L88.2537 160.642L89.9173 162.502L91.7657 163.991L95.0929 165.851L97.8656 166.967L101.008 167.711L105.999 168.083H110.62L113.208 167.897L114.132 167.711L111.544 165.851L108.771 163.433L104.89 159.526L102.856 156.921L101.193 154.875L98.2353 150.41L96.3869 147.248L94.1687 142.597L92.3203 137.388L91.2112 132.923L90.4718 128.644L90.287 126.784V119.156L91.2112 113.575L92.5051 109.111L94.1687 105.204L96.202 101.297L97.4959 99.4367L99.7141 96.4602L102.302 93.6697L104.52 91.4373L107.108 89.3909L109.881 87.5305L114.132 85.2981L117.829 83.8098L121.711 82.6936L125.408 81.9495L128.55 81.5774H135.019L139.456 82.1355L143.707 83.0657L147.219 84.1819L149.992 85.2981L153.504 86.9724L156.646 89.0188L158.68 90.5071L161.083 92.5535L163.301 94.5998L164.779 96.0881L166.073 97.5764L168.661 100.739L171.064 104.274L173.282 107.436L173.837 108.18L174.207 104.46V100.739L173.837 96.8323L173.097 92.7395L171.988 88.2747L170.694 84.554L169.031 80.8333L167.182 77.4847L165.704 75.4383L163.486 72.8338L162.192 71.5316L160.343 70.2293L158.68 64.8343L157.016 60.7416L155.352 57.951L154.058 56.2767L152.025 54.0443L151.471 53.4862L151.286 56.6488L150.731 59.6254L149.622 62.4159L147.959 65.0204L146.665 66.8807L145.371 68.9271H145.001L144.631 64.0902L143.892 61.4857L142.598 59.6254L140.565 57.951L137.053 56.0907L132.432 54.4164L129.659 53.6722L130.768 55.1605L132.247 57.765L133.356 60.7416L134.095 65.2064V66.8807L133.356 66.5086L131.507 64.0902L129.104 61.6717L127.81 60.7416L124.483 59.6254L114.502 57.2069L110.065 55.7186L107.108 54.2304L104.335 52.37L101.932 50.3236L98.9747 47.3471L96.9414 44.5566L95.0929 41.394L93.6142 37.6733L92.1354 32.4643L91.5809 32.2783L91.0264 34.1386L89.5476 38.9755L88.2537 44.3705L87.3295 49.7655L86.9598 53.6722V59.8114L87.5143 65.5785L88.9931 74.8802L89.1779 77.1126L88.4385 76.9266L85.481 72.4617L84.5568 70.9735L84.0023 68.9271L83.4477 64.6483L83.078 58.5091V53.8583L83.4477 49.5795L84.1871 44.9286L85.2962 40.0917L86.9598 34.6967L88.6234 30.79L90.1021 27.8134L91.5809 25.209L93.799 22.2324L95.4626 20.186L95.6475 20Z" stroke="#CE4945" stroke-width="4" mask="url(#path-6-outside-1_75_48)"/>
</g>
<path d="M78.11 320.35C78.37 320.43 78.5933 320.607 78.78 320.88C78.9667 321.147 79.06 321.453 79.06 321.8C79.06 322.54 78.82 323.093 78.34 323.46C77.86 323.82 77.16 324 76.24 324H72.12C72.0467 324 71.9833 323.973 71.93 323.92C71.8767 323.867 71.85 323.803 71.85 323.73V317.27C71.85 317.197 71.8767 317.133 71.93 317.08C71.9833 317.027 72.0467 317 72.12 317H76.14C77.0867 317 77.7833 317.173 78.23 317.52C78.6833 317.86 78.91 318.377 78.91 319.07V319.1C78.91 319.42 78.8233 319.693 78.65 319.92C78.4767 320.147 78.2967 320.29 78.11 320.35ZM76.2 319.16C76.2 319.04 76.1633 318.937 76.09 318.85C76.0233 318.763 75.9233 318.72 75.79 318.72H74.45V319.63H75.79C75.9233 319.63 76.0233 319.583 76.09 319.49C76.1633 319.39 76.2 319.28 76.2 319.16ZM75.9 322.28C76.0533 322.28 76.1667 322.23 76.24 322.13C76.32 322.023 76.36 321.907 76.36 321.78V321.77C76.36 321.643 76.3167 321.533 76.23 321.44C76.15 321.347 76.04 321.3 75.9 321.3H74.45V322.28H75.9ZM86.9861 322.05C87.0594 322.05 87.1228 322.077 87.1761 322.13C87.2294 322.183 87.2561 322.247 87.2561 322.32V323.73C87.2561 323.803 87.2294 323.867 87.1761 323.92C87.1228 323.973 87.0594 324 86.9861 324H80.6661C80.5928 324 80.5294 323.973 80.4761 323.92C80.4228 323.867 80.3961 323.803 80.3961 323.73V317.27C80.3961 317.197 80.4228 317.133 80.4761 317.08C80.5294 317.027 80.5928 317 80.6661 317H86.8861C86.9594 317 87.0228 317.027 87.0761 317.08C87.1294 317.133 87.1561 317.197 87.1561 317.27V318.68C87.1561 318.753 87.1294 318.817 87.0761 318.87C87.0228 318.923 86.9594 318.95 86.8861 318.95H82.9961V319.58H86.3361C86.4094 319.58 86.4728 319.607 86.5261 319.66C86.5794 319.713 86.6061 319.777 86.6061 319.85V321.15C86.6061 321.223 86.5794 321.287 86.5261 321.34C86.4728 321.393 86.4094 321.42 86.3361 321.42H82.9961V322.05H86.9861ZM95.6922 317C95.7655 317 95.8289 317.027 95.8822 317.08C95.9355 317.133 95.9622 317.197 95.9622 317.27V318.88C95.9622 318.953 95.9355 319.017 95.8822 319.07C95.8289 319.123 95.7655 319.15 95.6922 319.15H93.5422V323.73C93.5422 323.803 93.5155 323.867 93.4622 323.92C93.4089 323.973 93.3455 324 93.2722 324H91.2122C91.1389 324 91.0755 323.973 91.0222 323.92C90.9689 323.867 90.9422 323.803 90.9422 323.73V319.15H88.7922C88.7189 319.15 88.6555 319.123 88.6022 319.07C88.5489 319.017 88.5222 318.953 88.5222 318.88V317.27C88.5222 317.197 88.5489 317.133 88.6022 317.08C88.6555 317.027 88.7189 317 88.7922 317H95.6922ZM99.8583 323.73C99.8383 323.79 99.7883 323.85 99.7083 323.91C99.6349 323.97 99.5383 324 99.4183 324H98.0183C97.8916 324 97.7849 323.963 97.6983 323.89C97.6183 323.81 97.5716 323.72 97.5583 323.62L96.6883 317.25V317.22C96.6883 317.16 96.7083 317.11 96.7483 317.07C96.7949 317.023 96.8483 317 96.9083 317H98.6283C98.7616 317 98.8683 317.04 98.9483 317.12C99.0349 317.2 99.0849 317.3 99.0983 317.42L99.4183 320.48L99.9983 318.89C100.018 318.823 100.065 318.76 100.138 318.7C100.218 318.633 100.318 318.6 100.438 318.6H101.118C101.238 318.6 101.335 318.633 101.408 318.7C101.488 318.76 101.538 318.823 101.558 318.89L102.138 320.48L102.458 317.42C102.472 317.3 102.518 317.2 102.598 317.12C102.685 317.04 102.795 317 102.928 317H104.648C104.708 317 104.758 317.023 104.798 317.07C104.845 317.11 104.868 317.16 104.868 317.22V317.25L103.998 323.62C103.985 323.72 103.935 323.81 103.848 323.89C103.768 323.963 103.665 324 103.538 324H102.138C102.018 324 101.918 323.97 101.838 323.91C101.765 323.85 101.718 323.79 101.698 323.73L100.778 321.62L99.8583 323.73ZM112.474 322.05C112.548 322.05 112.611 322.077 112.664 322.13C112.718 322.183 112.744 322.247 112.744 322.32V323.73C112.744 323.803 112.718 323.867 112.664 323.92C112.611 323.973 112.548 324 112.474 324H106.154C106.081 324 106.018 323.973 105.964 323.92C105.911 323.867 105.884 323.803 105.884 323.73V317.27C105.884 317.197 105.911 317.133 105.964 317.08C106.018 317.027 106.081 317 106.154 317H112.374C112.448 317 112.511 317.027 112.564 317.08C112.618 317.133 112.644 317.197 112.644 317.27V318.68C112.644 318.753 112.618 318.817 112.564 318.87C112.511 318.923 112.448 318.95 112.374 318.95H108.484V319.58H111.824C111.898 319.58 111.961 319.607 112.014 319.66C112.068 319.713 112.094 319.777 112.094 319.85V321.15C112.094 321.223 112.068 321.287 112.014 321.34C111.961 321.393 111.898 321.42 111.824 321.42H108.484V322.05H112.474ZM120.97 322.05C121.044 322.05 121.107 322.077 121.16 322.13C121.214 322.183 121.24 322.247 121.24 322.32V323.73C121.24 323.803 121.214 323.867 121.16 323.92C121.107 323.973 121.044 324 120.97 324H114.65C114.577 324 114.514 323.973 114.46 323.92C114.407 323.867 114.38 323.803 114.38 323.73V317.27C114.38 317.197 114.407 317.133 114.46 317.08C114.514 317.027 114.577 317 114.65 317H120.87C120.944 317 121.007 317.027 121.06 317.08C121.114 317.133 121.14 317.197 121.14 317.27V318.68C121.14 318.753 121.114 318.817 121.06 318.87C121.007 318.923 120.944 318.95 120.87 318.95H116.98V319.58H120.32C120.394 319.58 120.457 319.607 120.51 319.66C120.564 319.713 120.59 319.777 120.59 319.85V321.15C120.59 321.223 120.564 321.287 120.51 321.34C120.457 321.393 120.394 321.42 120.32 321.42H116.98V322.05H120.97ZM129.357 317C129.43 317 129.493 317.027 129.547 317.08C129.6 317.133 129.627 317.197 129.627 317.27V323.73C129.627 323.803 129.6 323.867 129.547 323.92C129.493 323.973 129.43 324 129.357 324H127.747C127.587 324 127.453 323.93 127.347 323.79L125.167 321.01V323.73C125.167 323.803 125.14 323.867 125.087 323.92C125.033 323.973 124.97 324 124.897 324H123.037C122.963 324 122.9 323.973 122.847 323.92C122.793 323.867 122.767 323.803 122.767 323.73V317.27C122.767 317.197 122.793 317.133 122.847 317.08C122.9 317.027 122.963 317 123.037 317H124.657C124.817 317 124.947 317.067 125.047 317.2L127.227 320.21V317.27C127.227 317.197 127.253 317.133 127.307 317.08C127.36 317.027 127.423 317 127.497 317H129.357ZM201.251 323.66C201.165 323.887 201.015 324 200.801 324H198.911C198.851 324 198.798 323.98 198.751 323.94C198.711 323.893 198.691 323.84 198.691 323.78L198.701 323.72L200.881 317.33C200.908 317.243 200.958 317.167 201.031 317.1C201.105 317.033 201.205 317 201.331 317H204.111C204.238 317 204.338 317.033 204.411 317.1C204.485 317.167 204.535 317.243 204.561 317.33L206.741 323.72L206.751 323.78C206.751 323.84 206.728 323.893 206.681 323.94C206.641 323.98 206.591 324 206.531 324H204.641C204.428 324 204.278 323.887 204.191 323.66L203.941 322.96H201.501L201.251 323.66ZM202.721 318.93L202.011 321.01H203.431L202.721 318.93ZM214.318 317C214.391 317 214.454 317.027 214.508 317.08C214.561 317.133 214.588 317.197 214.588 317.27V323.73C214.588 323.803 214.561 323.867 214.508 323.92C214.454 323.973 214.391 324 214.318 324H212.708C212.548 324 212.414 323.93 212.308 323.79L210.128 321.01V323.73C210.128 323.803 210.101 323.867 210.048 323.92C209.994 323.973 209.931 324 209.858 324H207.998C207.924 324 207.861 323.973 207.808 323.92C207.754 323.867 207.728 323.803 207.728 323.73V317.27C207.728 317.197 207.754 317.133 207.808 317.08C207.861 317.027 207.924 317 207.998 317H209.618C209.778 317 209.908 317.067 210.008 317.2L212.188 320.21V317.27C212.188 317.197 212.214 317.133 212.268 317.08C212.321 317.027 212.384 317 212.458 317H214.318ZM219.654 317C220.78 317 221.68 317.243 222.354 317.73C223.034 318.217 223.374 318.97 223.374 319.99V321.01C223.374 322.05 223.037 322.81 222.364 323.29C221.697 323.763 220.794 324 219.654 324H216.464C216.39 324 216.327 323.973 216.274 323.92C216.22 323.867 216.194 323.803 216.194 323.73V317.27C216.194 317.197 216.22 317.133 216.274 317.08C216.327 317.027 216.39 317 216.464 317H219.654ZM219.704 322.05C220.017 322.05 220.264 321.977 220.444 321.83C220.63 321.677 220.724 321.463 220.724 321.19V319.81C220.724 319.537 220.63 319.327 220.444 319.18C220.264 319.027 220.017 318.95 219.704 318.95H218.794V322.05H219.704Z" fill="#FDFCFC"/>
<path d="M146.599 317C146.672 317 146.735 317.027 146.789 317.08C146.842 317.133 146.869 317.197 146.869 317.27V318.79C146.869 318.863 146.842 318.927 146.789 318.98C146.735 319.033 146.672 319.06 146.599 319.06H142.669V319.7H145.949C146.022 319.7 146.085 319.727 146.139 319.78C146.192 319.833 146.219 319.897 146.219 319.97V321.48C146.219 321.553 146.192 321.617 146.139 321.67C146.085 321.723 146.022 321.75 145.949 321.75H142.669V323.73C142.669 323.803 142.642 323.867 142.589 323.92C142.535 323.973 142.472 324 142.399 324H140.239C140.165 324 140.102 323.973 140.049 323.92C139.995 323.867 139.969 323.803 139.969 323.73V317.27C139.969 317.197 139.995 317.133 140.049 317.08C140.102 317.027 140.165 317 140.239 317H146.599ZM154.975 321.95C155.048 321.95 155.112 321.977 155.165 322.03C155.218 322.083 155.245 322.147 155.245 322.22V323.73C155.245 323.803 155.218 323.867 155.165 323.92C155.112 323.973 155.048 324 154.975 324H149.135C149.062 324 148.998 323.973 148.945 323.92C148.892 323.867 148.865 323.803 148.865 323.73V317.27C148.865 317.197 148.892 317.133 148.945 317.08C148.998 317.027 149.062 317 149.135 317H151.295C151.368 317 151.432 317.027 151.485 317.08C151.538 317.133 151.565 317.197 151.565 317.27V321.95H154.975ZM158.771 323.66C158.684 323.887 158.534 324 158.321 324H156.431C156.371 324 156.318 323.98 156.271 323.94C156.231 323.893 156.211 323.84 156.211 323.78L156.221 323.72L158.401 317.33C158.428 317.243 158.478 317.167 158.551 317.1C158.624 317.033 158.724 317 158.851 317H161.631C161.758 317 161.858 317.033 161.931 317.1C162.004 317.167 162.054 317.243 162.081 317.33L164.261 323.72L164.271 323.78C164.271 323.84 164.248 323.893 164.201 323.94C164.161 323.98 164.111 324 164.051 324H162.161C161.948 324 161.798 323.887 161.711 323.66L161.461 322.96H159.021L158.771 323.66ZM160.241 318.93L159.531 321.01H160.951L160.241 318.93ZM170.017 317.27C170.117 317.09 170.26 317 170.447 317H172.277C172.35 317 172.414 317.027 172.467 317.08C172.52 317.133 172.547 317.197 172.547 317.27V323.73C172.547 323.803 172.52 323.867 172.467 323.92C172.414 323.973 172.35 324 172.277 324H170.467C170.394 324 170.33 323.973 170.277 323.92C170.224 323.867 170.197 323.803 170.197 323.73V320.63L169.467 322.07C169.447 322.117 169.4 322.17 169.327 322.23C169.254 322.29 169.16 322.32 169.047 322.32H168.367C168.254 322.32 168.16 322.29 168.087 322.23C168.014 322.17 167.967 322.117 167.947 322.07L167.217 320.63V323.73C167.217 323.803 167.19 323.867 167.137 323.92C167.084 323.973 167.02 324 166.947 324H165.137C165.064 324 165 323.973 164.947 323.92C164.894 323.867 164.867 323.803 164.867 323.73V317.27C164.867 317.197 164.894 317.133 164.947 317.08C165 317.027 165.064 317 165.137 317H166.967C167.154 317 167.297 317.09 167.397 317.27L168.707 319.67L170.017 317.27ZM180.443 322.05C180.516 322.05 180.58 322.077 180.633 322.13C180.686 322.183 180.713 322.247 180.713 322.32V323.73C180.713 323.803 180.686 323.867 180.633 323.92C180.58 323.973 180.516 324 180.443 324H174.123C174.05 324 173.986 323.973 173.933 323.92C173.88 323.867 173.853 323.803 173.853 323.73V317.27C173.853 317.197 173.88 317.133 173.933 317.08C173.986 317.027 174.05 317 174.123 317H180.343C180.416 317 180.48 317.027 180.533 317.08C180.586 317.133 180.613 317.197 180.613 317.27V318.68C180.613 318.753 180.586 318.817 180.533 318.87C180.48 318.923 180.416 318.95 180.343 318.95H176.453V319.58H179.793C179.866 319.58 179.93 319.607 179.983 319.66C180.036 319.713 180.063 319.777 180.063 319.85V321.15C180.063 321.223 180.036 321.287 179.983 321.34C179.93 321.393 179.866 321.42 179.793 321.42H176.453V322.05H180.443ZM186.249 319.54C186.983 319.62 187.569 319.75 188.009 319.93C188.456 320.11 188.779 320.347 188.979 320.64C189.179 320.933 189.279 321.3 189.279 321.74C189.279 322.22 189.123 322.64 188.809 323C188.503 323.353 188.076 323.627 187.529 323.82C186.983 324.007 186.359 324.1 185.659 324.1C184.879 324.1 184.219 324.003 183.679 323.81C183.139 323.617 182.736 323.36 182.469 323.04C182.203 322.713 182.069 322.357 182.069 321.97C182.069 321.903 182.089 321.85 182.129 321.81C182.176 321.77 182.233 321.75 182.299 321.75H184.349C184.489 321.75 184.603 321.793 184.689 321.88C184.803 321.987 184.929 322.06 185.069 322.1C185.209 322.133 185.406 322.15 185.659 322.15C186.293 322.15 186.609 322.053 186.609 321.86C186.609 321.78 186.566 321.713 186.479 321.66C186.399 321.6 186.253 321.55 186.039 321.51C185.833 321.463 185.526 321.417 185.119 321.37C184.206 321.263 183.506 321.037 183.019 320.69C182.533 320.337 182.289 319.84 182.289 319.2C182.289 318.747 182.426 318.347 182.699 318C182.973 317.653 183.359 317.383 183.859 317.19C184.366 316.997 184.953 316.9 185.619 316.9C186.313 316.9 186.919 317.01 187.439 317.23C187.959 317.443 188.356 317.71 188.629 318.03C188.903 318.35 189.039 318.663 189.039 318.97C189.039 319.037 189.016 319.09 188.969 319.13C188.929 319.17 188.873 319.19 188.799 319.19H186.649C186.536 319.19 186.433 319.15 186.339 319.07C186.266 319.003 186.179 318.95 186.079 318.91C185.979 318.87 185.826 318.85 185.619 318.85C185.173 318.85 184.949 318.943 184.949 319.13C184.949 319.23 185.036 319.31 185.209 319.37C185.383 319.423 185.729 319.48 186.249 319.54Z" fill="#CE4945"/>
<path d="M240.806 323.65C240.832 323.69 240.846 323.733 240.846 323.78C240.846 323.84 240.822 323.893 240.776 323.94C240.736 323.98 240.686 324 240.626 324H238.046C237.892 324 237.772 323.947 237.686 323.84L235.946 321.69V323.73C235.946 323.803 235.919 323.867 235.866 323.92C235.812 323.973 235.749 324 235.676 324H233.616C233.542 324 233.479 323.973 233.426 323.92C233.372 323.867 233.346 323.803 233.346 323.73V317.27C233.346 317.197 233.372 317.133 233.426 317.08C233.479 317.027 233.542 317 233.616 317H235.676C235.749 317 235.812 317.027 235.866 317.08C235.919 317.133 235.946 317.197 235.946 317.27V319.15L237.526 317.17C237.626 317.057 237.749 317 237.896 317H240.306C240.366 317 240.416 317.023 240.456 317.07C240.502 317.11 240.526 317.16 240.526 317.22C240.526 317.273 240.509 317.32 240.476 317.36L238.106 320.25L240.806 323.65ZM248.302 317C248.375 317 248.439 317.027 248.492 317.08C248.545 317.133 248.572 317.197 248.572 317.27V323.73C248.572 323.803 248.545 323.867 248.492 323.92C248.439 323.973 248.375 324 248.302 324H246.692C246.532 324 246.399 323.93 246.292 323.79L244.112 321.01V323.73C244.112 323.803 244.085 323.867 244.032 323.92C243.979 323.973 243.915 324 243.842 324H241.982C241.909 324 241.845 323.973 241.792 323.92C241.739 323.867 241.712 323.803 241.712 323.73V317.27C241.712 317.197 241.739 317.133 241.792 317.08C241.845 317.027 241.909 317 241.982 317H243.602C243.762 317 243.892 317.067 243.992 317.2L246.172 320.21V317.27C246.172 317.197 246.199 317.133 246.252 317.08C246.305 317.027 246.369 317 246.442 317H248.302ZM255.028 321.95H256.838C256.911 321.95 256.975 321.977 257.028 322.03C257.081 322.083 257.108 322.147 257.108 322.22V323.73C257.108 323.803 257.081 323.867 257.028 323.92C256.975 323.973 256.911 324 256.838 324H250.498C250.425 324 250.361 323.973 250.308 323.92C250.255 323.867 250.228 323.803 250.228 323.73V322.22C250.228 322.147 250.255 322.083 250.308 322.03C250.361 321.977 250.425 321.95 250.498 321.95H252.328V319.05H250.498C250.425 319.05 250.361 319.023 250.308 318.97C250.255 318.917 250.228 318.853 250.228 318.78V317.27C250.228 317.197 250.255 317.133 250.308 317.08C250.361 317.027 250.425 317 250.498 317H256.838C256.911 317 256.975 317.027 257.028 317.08C257.081 317.133 257.108 317.197 257.108 317.27V318.78C257.108 318.853 257.081 318.917 257.028 318.97C256.975 319.023 256.911 319.05 256.838 319.05H255.028V321.95ZM265.874 317C265.934 317 265.984 317.023 266.024 317.07C266.071 317.11 266.094 317.16 266.094 317.22L266.084 317.29L263.784 323.67C263.751 323.763 263.697 323.843 263.624 323.91C263.551 323.97 263.454 324 263.334 324H261.004C260.884 324 260.787 323.97 260.714 323.91C260.641 323.843 260.591 323.773 260.564 323.7L258.244 317.29L258.234 317.22C258.234 317.16 258.254 317.11 258.294 317.07C258.341 317.023 258.394 317 258.454 317H260.564C260.684 317 260.781 317.037 260.854 317.11C260.934 317.177 260.987 317.25 261.014 317.33L262.164 321.16L263.314 317.33C263.341 317.243 263.391 317.167 263.464 317.1C263.537 317.033 263.637 317 263.764 317H265.874ZM273.9 322.05C273.973 322.05 274.037 322.077 274.09 322.13C274.143 322.183 274.17 322.247 274.17 322.32V323.73C274.17 323.803 274.143 323.867 274.09 323.92C274.037 323.973 273.973 324 273.9 324H267.58C267.507 324 267.443 323.973 267.39 323.92C267.337 323.867 267.31 323.803 267.31 323.73V317.27C267.31 317.197 267.337 317.133 267.39 317.08C267.443 317.027 267.507 317 267.58 317H273.8C273.873 317 273.937 317.027 273.99 317.08C274.043 317.133 274.07 317.197 274.07 317.27V318.68C274.07 318.753 274.043 318.817 273.99 318.87C273.937 318.923 273.873 318.95 273.8 318.95H269.91V319.58H273.25C273.323 319.58 273.387 319.607 273.44 319.66C273.493 319.713 273.52 319.777 273.52 319.85V321.15C273.52 321.223 273.493 321.287 273.44 321.34C273.387 321.393 273.323 321.42 273.25 321.42H269.91V322.05H273.9ZM279.706 319.54C280.44 319.62 281.026 319.75 281.466 319.93C281.913 320.11 282.236 320.347 282.436 320.64C282.636 320.933 282.736 321.3 282.736 321.74C282.736 322.22 282.58 322.64 282.266 323C281.96 323.353 281.533 323.627 280.986 323.82C280.44 324.007 279.816 324.1 279.116 324.1C278.336 324.1 277.676 324.003 277.136 323.81C276.596 323.617 276.193 323.36 275.926 323.04C275.66 322.713 275.526 322.357 275.526 321.97C275.526 321.903 275.546 321.85 275.586 321.81C275.633 321.77 275.69 321.75 275.756 321.75H277.806C277.946 321.75 278.06 321.793 278.146 321.88C278.26 321.987 278.386 322.06 278.526 322.1C278.666 322.133 278.863 322.15 279.116 322.15C279.75 322.15 280.066 322.053 280.066 321.86C280.066 321.78 280.023 321.713 279.936 321.66C279.856 321.6 279.71 321.55 279.496 321.51C279.29 321.463 278.983 321.417 278.576 321.37C277.663 321.263 276.963 321.037 276.476 320.69C275.99 320.337 275.746 319.84 275.746 319.2C275.746 318.747 275.883 318.347 276.156 318C276.43 317.653 276.816 317.383 277.316 317.19C277.823 316.997 278.41 316.9 279.076 316.9C279.77 316.9 280.376 317.01 280.896 317.23C281.416 317.443 281.813 317.71 282.086 318.03C282.36 318.35 282.496 318.663 282.496 318.97C282.496 319.037 282.473 319.09 282.426 319.13C282.386 319.17 282.33 319.19 282.256 319.19H280.106C279.993 319.19 279.89 319.15 279.796 319.07C279.723 319.003 279.636 318.95 279.536 318.91C279.436 318.87 279.283 318.85 279.076 318.85C278.63 318.85 278.406 318.943 278.406 319.13C278.406 319.23 278.493 319.31 278.666 319.37C278.84 319.423 279.186 319.48 279.706 319.54Z" fill="#6F62D4"/>
<path d="M82.756 312.38C75.916 312.38 72.496 308.605 72.496 301.056V291.86C72.496 290.568 72.3187 289.618 71.964 289.01C71.6093 288.377 70.9 288.06 69.836 288.06V286.92H74.016C74.928 286.92 75.6247 287.072 76.106 287.376C76.5873 287.68 76.9293 288.187 77.132 288.896C77.3347 289.58 77.436 290.568 77.436 291.86L77.474 302.196C77.4993 304.881 78.0187 306.971 79.032 308.466C80.0707 309.935 81.5653 310.67 83.516 310.67C86.1 310.67 87.9747 309.91 89.14 308.39C90.3307 306.845 90.926 304.4 90.926 301.056V286.92H92.826V301.056C92.826 304.78 92.0407 307.605 90.47 309.53C88.8993 311.43 86.328 312.38 82.756 312.38ZM101.009 293.19V312H99.1088V291.48C99.1088 290.416 98.8428 289.58 98.3108 288.972C97.8041 288.364 96.9301 288.06 95.6888 288.06H95.4988V286.92H98.1588C99.5774 286.92 100.73 287.11 101.617 287.49C102.529 287.845 103.289 288.415 103.897 289.2L116.969 304.4V286.92H118.869V312.114H117.121L101.009 293.19ZM125.305 291.86C125.305 290.568 125.128 289.618 124.773 289.01C124.419 288.377 123.709 288.06 122.645 288.06H122.265V286.92H132.601C137.719 286.92 141.607 288.009 144.267 290.188C146.953 292.341 148.295 295.381 148.295 299.308C148.295 301.816 147.725 304.033 146.585 305.958C145.471 307.858 143.799 309.34 141.569 310.404C139.365 311.468 136.705 312 133.589 312H125.305V291.86ZM133.475 310.48C135.249 310.48 136.819 310.037 138.187 309.15C139.581 308.263 140.657 306.984 141.417 305.312C142.203 303.64 142.595 301.689 142.595 299.46C142.595 297.256 142.203 295.331 141.417 293.684C140.657 292.012 139.581 290.72 138.187 289.808C136.794 288.896 135.198 288.44 133.399 288.44H133.095C132.259 288.44 131.588 288.491 131.081 288.592L130.245 288.706V310.214L131.081 310.366C131.613 310.442 132.285 310.48 133.095 310.48H133.475ZM153.063 291.86C153.063 290.568 152.886 289.618 152.531 289.01C152.176 288.377 151.467 288.06 150.403 288.06H150.023V286.92H166.781C168.934 286.92 170.011 287.933 170.011 289.96V293.19H168.871C168.871 291.619 168.466 290.467 167.655 289.732C166.87 288.997 165.692 288.63 164.121 288.63H158.003V298.13H167.883V299.84H158.003V310.29H164.501C165.945 310.29 167.148 309.973 168.111 309.34C169.074 308.681 169.872 307.554 170.505 305.958L171.531 306.338L170.429 309.34C170.1 310.252 169.707 310.923 169.251 311.354C168.795 311.785 168.086 312 167.123 312H153.063V291.86ZM193.518 312.38C192.125 312.38 190.858 311.975 189.718 311.164C188.578 310.328 187.388 308.897 186.146 306.87L182.346 300.524H180.826V312H175.848V291.86C175.848 290.568 175.671 289.618 175.316 289.01C174.962 288.377 174.252 288.06 173.188 288.06H172.808V286.92H183.296C185.931 286.92 188.3 287.401 190.402 288.364C192.505 289.327 193.556 291.176 193.556 293.912C193.556 297.079 191.504 299.181 187.4 300.22L191.39 306.87C192.885 309.378 194.456 310.771 196.102 311.05V312C195.9 312.101 195.532 312.19 195 312.266C194.468 312.342 193.974 312.38 193.518 312.38ZM183.106 299.004C184.525 299.004 185.728 298.586 186.716 297.75C187.73 296.889 188.236 295.546 188.236 293.722C188.236 291.923 187.742 290.593 186.754 289.732C185.766 288.871 184.614 288.44 183.296 288.44C182.562 288.44 181.992 288.491 181.586 288.592L180.826 288.706V299.004H183.106ZM204.47 288.63H201.772C200.354 288.63 199.264 288.985 198.504 289.694C197.77 290.403 197.402 291.569 197.402 293.19H196.262V289.96C196.262 287.933 197.339 286.92 199.492 286.92H217.352V288.63H209.41V312H204.47V288.63ZM238.741 312.152C237.145 312.152 235.701 311.823 234.409 311.164C233.117 310.48 232.066 309.163 231.255 307.212L230.381 305.084H220.273L217.157 312H215.181L226.391 286.92H228.101L236.613 307.212C237.576 309.568 238.893 310.835 240.565 311.012V311.962C240.109 312.089 239.501 312.152 238.741 312.152ZM221.071 303.374H229.659L225.479 293.456L221.071 303.374ZM243.09 291.86C243.09 290.568 242.913 289.618 242.558 289.01C242.204 288.377 241.494 288.06 240.43 288.06H240.05V286.92H244.61C245.522 286.92 246.219 287.072 246.7 287.376C247.182 287.68 247.524 288.187 247.726 288.896C247.929 289.58 248.03 290.568 248.03 291.86V310.29H261.14V312H243.09V291.86ZM264.131 291.86C264.131 290.568 263.954 289.618 263.599 289.01C263.245 288.377 262.535 288.06 261.471 288.06H261.091V286.92H277.849C280.003 286.92 281.079 287.933 281.079 289.96V293.19H279.939C279.939 291.619 279.534 290.467 278.723 289.732C277.938 288.997 276.76 288.63 275.189 288.63H269.071V298.13H278.951V299.84H269.071V310.29H275.569C277.013 310.29 278.217 309.973 279.179 309.34C280.142 308.681 280.94 307.554 281.573 305.958L282.599 306.338L281.497 309.34C281.168 310.252 280.775 310.923 280.319 311.354C279.863 311.785 279.154 312 278.191 312H264.131V291.86Z" fill="#FDFCFC"/>
</g>
<defs>
<filter id="filter0_dd_75_48" x="58.835" y="17.8363" width="262.165" height="258.823" filterUnits="userSpaceOnUse" color-interpolation-filters="sRGB">
<feFlood flood-opacity="0" result="BackgroundImageFix"/>
<feColorMatrix in="SourceAlpha" type="matrix" values="0 0 0 0 0 0 0 0 0 0 0 0 0 0 0 0 0 0 127 0" result="hardAlpha"/>
<feOffset/>
<feGaussianBlur stdDeviation="7.5"/>
<feComposite in2="hardAlpha" operator="out"/>
<feColorMatrix type="matrix" values="0 0 0 0 0.992157 0 0 0 0 0.988235 0 0 0 0 0.988235 0 0 0 0.5 0"/>
<feBlend mode="normal" in2="BackgroundImageFix" result="effect1_dropShadow_75_48"/>
<feColorMatrix in="SourceAlpha" type="matrix" values="0 0 0 0 0 0 0 0 0 0 0 0 0 0 0 0 0 0 127 0" result="hardAlpha"/>
<feOffset/>
<feGaussianBlur stdDeviation="3.75"/>
<feComposite in2="hardAlpha" operator="out"/>
<feColorMatrix type="matrix" values="0 0 0 0 0.435294 0 0 0 0 0.384314 0 0 0 0 0.831373 0 0 0 0.5 0"/>
<feBlend mode="normal" in2="effect1_dropShadow_75_48" result="effect2_dropShadow_75_48"/>
<feBlend mode="normal" in="SourceGraphic" in2="effect2_dropShadow_75_48" result="shape"/>
</filter>
<filter id="filter1_d_75_48" x="-47" y="-72" width="316.903" height="343.981" filterUnits="userSpaceOnUse" color-interpolation-filters="sRGB">
<feFlood flood-opacity="0" result="BackgroundImageFix"/>
<feColorMatrix in="SourceAlpha" type="matrix" values="0 0 0 0 0 0 0 0 0 0 0 0 0 0 0 0 0 0 127 0" result="hardAlpha"/>
<feOffset/>
<feGaussianBlur stdDeviation="45"/>
<feComposite in2="hardAlpha" operator="out"/>
<feColorMatrix type="matrix" values="0 0 0 0 0.811765 0 0 0 0 0.286275 0 0 0 0 0.27451 0 0 0 1 0"/>
<feBlend mode="normal" in2="BackgroundImageFix" result="effect1_dropShadow_75_48"/>
<feBlend mode="normal" in="SourceGraphic" in2="effect1_dropShadow_75_48" result="shape"/>
</filter>
<clipPath id="clip0_75_48">
<rect width="352" height="352" fill="white"/>
</clipPath>
</defs>
</svg>
