<svg width="341" height="319" viewBox="0 0 341 319" fill="none" xmlns="http://www.w3.org/2000/svg">
<g filter="url(#filter0_dd_75_40)">
<path d="M308.992 36.9516H311.36L314.374 37.385L317.173 38.4684L319.326 39.7685L321.91 41.9353L323.632 44.3188L325.139 47.3524L325.785 49.7359L326 51.2526V55.3696L325.139 58.6199L323.417 61.8701L321.048 64.4703L318.895 66.2037L315.881 67.7205L313.944 68.3706L312.652 68.5872L307.7 68.8039L305.978 70.5374L304.47 72.2709L302.102 74.871L300.595 76.6045L298.012 79.6381L296.074 81.8049L294.567 83.5383L292.629 85.7052L291.122 87.4386L288.539 90.4722L287.677 91.989L289.615 94.1558L291.337 96.3226L294.136 100.006L296.935 104.34L299.088 108.24L301.241 113.007L302.963 118.208L304.255 124.275L304.901 129.475L305.116 132.725V139.659L304.47 146.376L303.179 152.66L301.456 158.294L299.303 163.928L296.289 169.995L293.706 174.328L290.691 178.662L288.323 181.696L286.386 184.079L284.448 186.246L282.941 187.979L275.621 195.347L273.898 196.863L270.884 199.463L268.085 201.847L264.425 204.881L260.981 207.697L257.536 210.298L251.507 215.065L248.709 217.231L245.694 219.615L242.896 221.782L239.02 224.815L235.36 227.849L228.471 233.483L225.672 235.866L223.304 237.816L217.275 243.017L214.046 246.05L210.386 249.517L201.774 258.184L200.267 259.918L198.329 262.085L196.391 264.468L193.808 267.502L191.009 271.185L188.856 274.002L186.273 277.686L183.904 281.369L181.536 285.27L179.168 289.603L176.369 295.671L174.001 301.088L172.924 303.471H172.494L170.125 298.054L167.757 293.07L165.389 288.52L161.944 282.886L159.36 279.203L157.423 276.602L154.624 273.136L152.04 270.319L150.533 268.802L149.026 267.068L146.227 264.468L143.859 262.301L141.491 260.351L138.692 257.968L135.893 255.801L134.171 254.284L134.386 253.851L136.97 254.501L140.845 256.234L144.72 258.401L147.734 260.351L150.103 261.868L147.95 257.968L145.581 254.284L142.998 249.951V249.084L144.074 249.3L146.658 251.684L148.38 253.201L150.533 255.368L152.04 257.101L153.978 259.268L156.346 262.301L158.93 265.768L161.944 270.319L164.528 274.869L167.111 279.853L169.91 286.137L172.494 292.637L174.001 289.603L176.154 284.62L179.168 278.553L181.321 274.869L183.043 272.269L185.842 268.369L188.856 264.468L191.224 261.651L193.162 259.268L195.961 256.451L197.468 254.718L201.128 251.034L202.635 249.3L204.357 247.784L207.802 244.317H208.233L208.448 243.667L210.17 242.15L212.969 239.55L214.692 238.033L217.06 235.866L219.428 233.916L221.581 231.966L223.949 230.016L226.748 227.632L228.686 226.115L234.068 221.782L236.867 219.615L239.881 217.231L242.68 215.065L246.125 212.464L249.139 210.081L251.938 207.914L255.813 204.881L258.828 202.497L262.488 199.463L264.641 197.73L267.439 195.347L269.808 193.396L272.176 191.23L273.898 189.713L276.051 187.763L280.357 183.429L282.295 181.045L284.448 178.662L286.816 175.412L289.83 170.861L292.199 166.744L294.567 161.761L296.504 156.56L298.012 151.36L299.303 144.643L299.734 140.526V130.558L299.088 125.141L298.012 120.158L296.504 115.607L294.567 111.057L291.983 106.723L289.83 103.69L287.031 100.223L285.094 97.8394L283.802 96.5393L282.941 96.9727L280.788 99.1395L278.85 101.523L277.128 103.473L276.912 104.34L279.281 106.94L282.08 110.624L284.663 114.741L287.462 120.591L289.184 126.008L290.261 131.208L290.691 135.325V142.476L290.046 147.893L288.969 153.093L287.247 158.727L284.878 164.144L282.51 168.695L280.142 172.595L278.42 175.195L275.405 179.312L273.683 181.479L271.745 183.862L269.162 186.896L266.794 189.496L265.286 191.23L259.904 196.647L258.182 198.163L255.598 200.547L253.876 202.064L250.862 204.664L247.632 207.481L245.264 209.431L243.111 211.381L240.743 213.331L237.298 216.148L233.638 218.965L229.547 221.998L225.241 225.249L217.491 230.882L213.831 233.483L206.08 239.116L201.774 242.15L198.76 244.317L194.669 247.35L191.655 249.734L188.856 252.117L184.55 256.018L182.612 258.184L180.244 261.001L177.445 264.902L174.862 269.019L172.924 272.269H172.278L170.771 269.019L167.972 263.602L165.389 259.701L162.805 256.234L160.222 253.201L151.61 244.533L149.887 243.017L148.38 241.5L146.658 239.983L144.074 237.383V237.166L146.227 237.383L150.103 238.9L153.547 240.633L157.207 243.017L159.791 244.967L161.944 246.917L163.666 248.434L166.25 251.034L168.188 253.417L170.341 256.234L172.709 260.135L173.355 261.001V261.435H173.785L174.216 260.351L177.23 256.234L179.383 253.851L180.89 252.117L184.335 248.65L186.703 246.7L188.641 244.967L192.301 242.15L196.391 239.116L200.267 236.3L203.712 233.916L207.587 231.099L211.032 228.716L214.907 225.899L218.567 223.299L222.442 220.482L226.533 217.448L230.408 214.415L233.423 212.031L236.867 209.214L239.666 206.831L242.034 204.881L244.833 202.497L246.986 200.764L249.139 198.813L251.507 196.863L254.737 193.83L257.32 191.446L263.995 184.729L265.502 182.996L268.085 180.179L272.822 174.112L274.76 171.295L277.343 167.178L279.281 163.711L281.434 158.944L283.802 151.793L284.878 146.16L285.309 141.393V137.492L284.878 132.942L283.587 127.092L281.649 121.241L279.927 117.774L277.989 114.524L276.051 111.924L274.114 109.54L273.252 108.674L272.391 108.89L270.454 110.84L268.947 112.574L266.578 115.174L264.641 117.557L262.057 120.374L260.55 122.108L259.473 123.408L259.689 124.275L261.626 126.225L263.133 127.958L267.439 132.292L268.947 134.025L271.53 136.842L273.898 139.876L276.051 142.693L276.267 143.559L275.19 143.343L271.745 140.959L266.794 137.492L263.779 135.325L259.904 132.509L256.89 130.342L254.522 128.608L251.507 126.441L250.646 125.791L251.077 124.708L253.876 121.891L255.383 120.158L257.536 117.774L259.043 116.041L262.057 112.79L264.856 109.757L266.363 108.023L269.592 104.557L271.745 102.173L273.252 100.44L275.19 98.2728L276.697 96.5393L278.635 94.3725L280.788 91.989L282.726 89.6055L285.74 86.3552L287.677 83.9717L290.691 80.7215L292.199 78.988L294.136 76.8212L295.643 75.0877L297.581 72.9209L299.949 70.3207L302.748 67.2872V66.6371L301.026 65.337L299.519 64.0369L297.366 61.22L295.643 57.7531L294.782 55.1529V54.0695H294.352L293.921 54.9362L291.122 58.1865L289.184 60.57L287.031 62.9535L285.094 65.337L282.295 68.5872L280.357 70.9708L278.42 73.1376L276.482 75.5211L274.544 77.6879L272.607 80.0714L270.669 82.2382L268.731 84.6218L266.148 87.6553L264.21 90.0388L261.842 92.8557L259.904 95.2392L257.105 98.4894L254.737 101.306L252.799 103.69L250.216 106.723L248.278 109.107L245.91 111.924L243.972 114.307L241.173 117.557L239.236 119.941L236.867 122.541L234.93 124.925L232.992 127.092L231.054 129.475L225.887 135.542L223.949 137.926L221.151 141.176L219.213 143.559L217.275 145.726L215.338 148.11L212.754 151.143L210.816 153.527L203.066 162.627L200.697 165.444L198.114 168.478L196.176 170.861L193.808 173.678L191.87 176.062L187.134 181.696L185.196 184.079L182.397 187.329L180.029 190.146L174.862 196.213L172.063 199.463L169.695 202.28L167.111 205.314L165.173 207.697L157.423 216.798L155.485 219.182L152.902 222.215L150.964 224.599L149.026 226.765L147.089 229.149L144.72 231.966L142.783 234.349L140.63 236.95L137.615 241.067L135.032 245.617L133.525 247.35L126.205 252.551L123.406 254.284L120.392 256.018L116.947 257.751L111.995 260.135L105.967 262.735L98.4315 265.552L91.1114 267.935L82.0689 270.319L71.7347 272.702L59.678 275.086L56.8792 275.519H55.5874L55.8027 274.652L57.9557 272.269L60.3239 269.235L62.9075 266.202L65.2758 263.168L67.4287 260.785L69.1511 258.618L71.5194 255.801L73.8876 252.767L76.4712 249.734L78.4089 247.35L80.7771 244.533L82.7148 242.15L84.8678 239.766L86.8054 237.383L89.389 234.349L91.3267 231.966L94.1255 228.716L96.0632 226.332L98.6468 223.299L103.383 217.665L105.321 215.281L107.689 212.464L109.627 210.081L111.995 207.264L114.579 204.231L116.516 201.847L118.885 199.247L120.822 196.863L123.406 194.046L125.344 191.663L127.712 189.063L129.649 186.679L132.233 183.646L133.31 182.562H133.74L134.171 189.063L135.032 195.997L135.463 199.68L136.539 199.03L139.123 195.997L141.491 193.396L142.998 191.663L145.797 188.413L148.165 185.812L149.672 184.079L152.256 181.045L154.624 178.445L156.131 176.712L158.715 173.678L161.729 170.428L163.236 168.695L165.389 166.311L166.896 164.578L169.479 161.761L172.278 158.727L173.785 156.994L178.952 151.36L181.321 148.76L184.55 145.293L186.918 142.693L190.794 138.792L192.301 137.059L197.899 131.425L199.621 129.908L202.635 126.875L205.003 124.925L205.865 124.275L206.51 124.491L204.142 127.525L201.128 131.208L199.19 133.592L196.822 136.409L194.884 138.792L192.516 141.609L190.578 143.993L188.641 146.16L186.703 148.543L183.904 151.793L181.321 154.827L179.383 157.21L176.584 160.461L174.001 163.494L172.063 165.878L169.695 168.478L167.757 170.861L165.819 173.028L163.882 175.412L161.083 178.445L159.145 180.829L153.547 187.329L151.61 189.496L149.672 191.88L147.519 194.263L145.581 196.647L143.428 199.03L141.491 201.414L139.553 203.58L137.615 205.964L135.463 208.347L131.587 213.114H131.157L129.865 205.314L129.004 199.897L128.573 197.947L127.712 198.38L125.559 200.764L123.621 203.147L121.253 205.747L119.315 208.131L116.947 210.731L115.44 212.464L112.856 215.498L110.488 218.098L106.182 223.515L104.675 225.899L104.46 227.849L105.321 229.366L107.043 230.666L109.412 231.533L110.488 231.749H113.933L116.086 231.099L118.023 229.799L118.669 229.582L119.1 228.716L120.607 226.549L121.468 224.599L121.684 223.515V219.832H122.329L123.836 221.348L125.559 223.515L127.927 226.549L130.511 230.449L133.74 235.649L134.171 236.083L136.754 233.049L138.692 230.666L141.06 228.066L142.567 226.332L145.151 223.299L147.95 220.048L150.533 217.015L153.332 213.765L155.27 211.598L156.777 209.864L158.715 207.481L161.298 204.664L163.236 202.28L165.173 200.114L166.681 198.38L171.848 192.313L174.216 189.713L176.154 187.329L178.522 184.729L180.46 182.346L182.397 180.179L184.335 177.795L186.273 175.628L188.21 173.245L191.009 169.995L192.947 167.611L194.884 165.444L196.822 163.061L199.19 160.244L201.128 157.86L203.496 155.044L205.434 152.66L208.018 149.627L210.386 146.593L212.323 144.426L214.692 141.393L216.629 139.226L218.567 136.842L220.505 134.675L222.442 132.292L224.811 129.475L226.748 127.092L231.485 121.458L235.36 116.691L237.728 113.874L239.666 111.49L242.68 107.807L245.264 104.773L247.202 102.39L249.785 99.3562L254.522 93.7224L255.383 92.2056L247.417 89.6055L240.527 87.872L236.006 87.2219L229.117 87.0053L224.165 87.2219L219.644 87.872L215.122 89.1721L212.539 90.2555L209.955 91.5556L207.372 93.2891L204.573 95.4559L201.774 98.0561L197.683 102.173L195.315 105.207L193.808 107.373L191.87 110.624L190.148 114.524L188.856 118.424L187.78 123.841L187.134 129.908L186.703 130.775L185.842 130.342L184.765 127.958L183.474 123.625L182.828 119.724L182.612 117.557V110.407L183.258 104.557L184.335 99.3562L185.627 94.8058L187.78 89.6055L189.933 85.4885L191.655 82.8883L193.593 80.2881L195.961 77.6879L197.468 75.9545L200.482 73.1376L204.357 70.3207L207.156 68.5872L210.386 66.8538L214.692 65.1203L218.352 64.0369L222.658 63.1702L226.533 62.7368H233.423L239.451 63.3869L245.694 64.687L251.077 66.2037L257.966 68.8039L262.272 70.7541L268.516 73.7876L270.023 74.6544L270.884 74.221L273.037 71.8375L274.975 69.454L277.128 67.0705L279.065 64.687L281.434 62.0868L283.371 59.7033L285.524 57.3198L287.462 54.9362L289.83 52.3361L291.337 50.6026L293.921 47.569L296.289 44.9689L298.873 42.152L300.595 40.4185L302.748 38.9017L305.547 37.6016L308.992 36.9516Z" fill="#FDFCFC"/>
</g>
<path d="M226.965 68.1542H232.348L236.869 68.5875L244.189 70.1043L251.724 72.4878L257.537 74.8713L261.197 76.6048L265.934 79.4217L265.719 80.2884L263.781 82.6719L261.843 84.8387L259.69 87.6556L258.829 87.8723L250.648 85.0554L244.835 83.5386L239.237 82.4552L234.285 81.8052L230.195 81.5885H227.826L221.798 82.0219L216.416 83.1053L211.249 84.8387L206.943 87.0056L204.359 88.739L200.914 91.3392L197.254 94.8061L195.317 96.7563L193.379 99.1398L191.011 102.173L188.858 105.64L187.997 106.507L188.642 102.39L189.504 98.9231L191.657 93.2894L193.594 89.1724L195.747 85.7055L198.331 82.2385L200.699 79.6384L202.637 77.6882L205.651 75.3047L208.665 73.3546L213.186 71.1877L217.062 69.8876L221.583 68.8042L226.965 68.1542Z" fill="#6F62D4"/>
<path d="M98.2155 232.399L99.0767 232.616L101.014 234.783L103.383 236.949L106.397 238.9L108.765 239.983L111.564 240.633H114.578L117.377 239.766L119.745 238.25L121.898 235.866L124.266 232.399L124.912 232.616L126.85 236.733L127.711 239.983V242.583L126.635 244.75L124.912 246.483L121.037 249.3L116.731 251.901L111.779 254.501L108.119 256.234L102.306 258.618L96.2779 260.785L89.3884 262.951L80.5612 265.335L74.9635 266.635L70.6576 267.502L69.7964 267.285L71.9494 264.251L76.6859 258.184L78.6235 255.801L81.4224 252.334L83.7907 249.517L85.7283 247.134L88.0966 244.317L90.0343 241.933L92.4025 239.116L94.9861 236.083L96.9238 233.699L98.2155 232.399Z" fill="#6F62D4"/>
<path d="M308.341 42.1514H312.432L315.016 43.0182L317.384 44.5349L319.106 46.4851L320.829 49.952L321.044 51.0354V54.9357L320.398 57.1025L319.106 59.2694L316.738 61.6529L314.8 62.7363L313.078 63.3863L311.786 63.603H309.203L306.619 62.953L304.251 61.6529L302.744 60.3528L300.806 57.7526L299.729 54.9357L299.514 51.9021L299.945 49.7353L301.452 46.7018L303.39 44.5349L305.758 43.0182L307.48 42.3681L308.341 42.1514Z" fill="#6F62D4"/>
<g filter="url(#filter1_d_75_40)">
<mask id="path-5-outside-1_75_40" maskUnits="userSpaceOnUse" x="20" y="20" width="159" height="191" fill="black">
<rect fill="white" x="20" y="20" width="159" height="191"/>
<path d="M80.9912 22H81.4218V24.1668L81.2065 25.4669V32.8341L82.283 38.2512L83.5748 42.1515L85.7278 46.7018L87.8807 49.7354L90.249 52.5522L92.6173 54.9358L96.2773 57.5359L99.722 59.2694L103.167 60.5695L113.932 63.1697L117.376 63.8197L117.807 64.0364L116.085 61.6529L112.855 58.4027L110.487 56.4525L110.056 55.5858L113.716 55.8025L118.668 56.6692L126.419 58.6194L131.801 60.5695L136.322 62.953L139.121 65.1198L140.844 66.8533L141.274 67.07L141.49 64.4698V61.4362L140.628 57.5359L138.906 53.6357L139.121 52.7689L143.427 54.7191L145.15 55.5858L148.164 57.7526L150.963 60.3528L153.761 63.8197L155.699 67.07L157.422 70.7536L159.574 76.8207L160.22 77.6874V78.1208H160.651L161.512 79.2042L163.235 80.721L165.603 83.3212L167.756 86.138L169.909 89.3883L172.492 94.5887L173.999 98.489L175.291 103.473L176.368 108.89L176.798 113.223V119.724L176.152 126.441L174.948 133.659L173.939 137.214L173.569 136.625L167.54 126.658L164.311 121.891L160.866 117.34L158.283 114.307L154.623 110.623L152.254 108.673L149.025 106.29L145.796 104.339L142.351 102.606L139.121 101.306L134.815 100.006L130.294 99.139L126.204 98.7056H121.252L115.654 99.3557L110.702 100.439L105.535 102.173L101.014 104.339L97.3538 106.723L94.3396 109.106L91.5408 111.707L88.9572 114.74L86.8043 117.774L84.8666 121.024L82.283 126.441L80.9912 130.558L80.1301 134.892L79.6995 138.575V145.292L80.1301 149.626L80.9912 154.393L82.4983 159.593L84.436 164.794L87.0195 169.994L89.3878 173.894L91.9714 177.578L94.7702 181.045L96.2773 182.778L97.3538 183.862V184.295L98.215 184.729L99.0762 185.595V186.029L99.9373 186.462L101.66 188.196L104.028 190.146L107.042 192.313L109.841 194.046L113.501 195.779L113.716 196.43L111.348 197.08L106.181 197.946L100.153 198.596H89.3878L83.3595 197.73L79.9148 196.646L75.8241 194.696L76.6853 198.596L78.4077 202.497L80.1301 205.53L81.6371 207.48V207.914L80.3454 207.697L74.1018 204.88L70.657 202.93L67.8582 200.98L65.4899 199.03L62.691 196.213L60.3228 192.963L58.6004 189.496L57.5239 186.245L57.0933 183.862V178.445L52.7874 178.011L47.405 176.711L43.7449 175.411L39.439 173.461L35.1331 171.078L30.8272 168.044L27.5977 165.227L25.4447 163.277L22.8612 160.677L22 159.377V158.943L24.3683 159.377L30.1813 160.243H34.7025L38.5778 159.593L41.592 158.51L44.6061 156.343L46.7591 154.176V153.093L44.3908 149.409L42.2379 145.726L39.8696 140.525L38.3625 135.975L37.0708 130.558L36.2096 124.491L35.9943 121.457V114.74L36.4249 109.54L37.2861 103.906L38.7931 97.8389L39.2237 97.1889L39.8696 97.4055L40.7308 99.789L42.8838 105.856L44.6061 109.323L45.6826 111.057L45.8979 110.19L46.3285 105.856L47.1897 102.173L48.4815 98.9223L50.4191 95.2387L52.1415 92.4219L54.7251 87.4381L56.0168 83.5379L56.6627 80.5043V74.4372L56.0168 71.6203V70.9703L57.0933 71.1869L59.6769 73.7871L62.2605 77.4707L64.1981 80.9377L65.7052 84.4046L66.5664 87.4381L66.997 89.8216V92.4219H66.5664L66.1358 93.5053L64.6287 95.022L63.5522 96.3221H63.1216L62.9063 89.8216L62.0452 85.7047L61.184 83.3212L60.9687 82.6711L58.8157 88.9549L57.0933 92.6385L55.1557 95.8888L53.4333 98.7056L51.7109 103.039L50.4191 107.59L50.2038 108.89V111.273L51.065 114.74L52.7874 118.64L54.7251 122.324V122.974L53.218 122.757L49.7733 121.241L47.405 119.724L45.252 117.774L42.6685 114.09L40.7308 110.84L40.5155 111.923L40.3002 117.34L40.5155 122.541L41.1614 127.958L42.0226 132.291L43.5297 137.492L45.252 141.825L47.1897 145.942L50.4191 151.143L52.3568 153.743L54.5098 156.56L54.7251 157.21H55.1557V158.077L48.9121 158.293L47.1897 160.027L45.0367 161.544L42.2379 162.844L39.2237 163.71L36.4249 164.144L33.1954 164.36L36.2096 166.527L39.439 168.477L43.9602 170.644L49.1274 172.378L53.8639 173.244H57.7392L60.5381 172.811H61.6146L61.8299 173.461L61.184 177.795V182.128L61.8299 185.595L63.1216 189.062L64.6287 191.879L66.7817 194.696L68.9346 196.863L71.3029 198.596L72.5947 199.463L71.5182 195.779L70.4417 191.446L70.2264 189.496V183.212L70.8723 183.429L72.3794 185.812L74.3171 187.979L76.47 189.712L80.3454 191.879L83.5748 193.179L87.2348 194.046L93.0479 194.479H98.4303L101.444 194.263L102.521 194.046L99.5067 191.879L96.2773 189.062L91.7561 184.512L89.3878 181.478L87.4501 179.095L84.0054 173.894L81.8524 170.211L79.2689 164.794L77.1159 158.727L75.8241 153.526L74.9629 148.543L74.7477 146.376V137.492L75.8241 130.991L77.3312 125.791L79.2689 121.241L81.6371 116.69L83.1442 114.523L85.7278 111.057L88.7419 107.806L91.3255 105.206L94.3396 102.823L97.5691 100.656L102.521 98.0556L106.827 96.3221L111.348 95.022L115.654 94.1553L119.314 93.7219H126.849L132.017 94.372L136.968 95.4554L141.059 96.7555L144.288 98.0556L148.379 100.006L152.039 102.389L154.407 104.123L157.206 106.506L159.79 108.89L161.512 110.623L163.019 112.357L166.033 116.04L168.832 120.157L171.416 123.841L172.062 124.708L172.492 120.374V116.04L172.062 111.49L171.201 106.723L169.909 101.523L168.402 97.1889L166.464 92.8552L164.311 88.9549L162.589 86.5714L160.005 83.5379L158.498 82.0211L156.345 80.5043L154.407 74.2205L152.47 69.4535L150.532 66.2032L149.025 64.2531L146.657 61.6529L146.011 61.0029L145.796 64.6865L145.15 68.1534L143.858 71.4036L141.92 74.4372L140.413 76.604L138.906 78.9875H138.475L138.045 73.3538L137.184 70.3202L135.677 68.1534L133.308 66.2032L129.218 64.0364L123.835 62.0863L120.606 61.2195L121.898 62.953L123.62 65.9866L124.912 69.4535L125.773 74.6539V76.604L124.912 76.1706L122.759 73.3538L119.96 70.5369L118.453 69.4535L114.577 68.1534L102.951 65.3365L97.7844 63.6031L94.3396 61.8696L91.1102 59.7028L88.3113 57.3193L84.8666 53.8523L82.4983 50.6021L80.3454 46.9185L78.623 42.5848L76.9006 36.5177L76.2547 36.3011L75.6088 38.4679L73.8865 44.1016L72.3794 50.3854L71.3029 56.6692L70.8723 61.2195V68.3701L71.5182 75.0872L73.2406 85.9214L73.4559 88.5216L72.5947 88.3049L69.1499 83.1045L68.0735 81.371L67.4276 78.9875L66.7817 74.0038L66.3511 66.8533V61.4362L66.7817 56.4525L67.6429 51.0355L68.9346 45.4017L70.8723 39.1179L72.81 34.5676L74.5324 31.1007L76.2547 28.0671L78.8383 24.6002L80.776 22.2167L80.9912 22Z"/>
</mask>
<path d="M80.9912 22H81.4218V24.1668L81.2065 25.4669V32.8341L82.283 38.2512L83.5748 42.1515L85.7278 46.7018L87.8807 49.7354L90.249 52.5522L92.6173 54.9358L96.2773 57.5359L99.722 59.2694L103.167 60.5695L113.932 63.1697L117.376 63.8197L117.807 64.0364L116.085 61.6529L112.855 58.4027L110.487 56.4525L110.056 55.5858L113.716 55.8025L118.668 56.6692L126.419 58.6194L131.801 60.5695L136.322 62.953L139.121 65.1198L140.844 66.8533L141.274 67.07L141.49 64.4698V61.4362L140.628 57.5359L138.906 53.6357L139.121 52.7689L143.427 54.7191L145.15 55.5858L148.164 57.7526L150.963 60.3528L153.761 63.8197L155.699 67.07L157.422 70.7536L159.574 76.8207L160.22 77.6874V78.1208H160.651L161.512 79.2042L163.235 80.721L165.603 83.3212L167.756 86.138L169.909 89.3883L172.492 94.5887L173.999 98.489L175.291 103.473L176.368 108.89L176.798 113.223V119.724L176.152 126.441L174.948 133.659L173.939 137.214L173.569 136.625L167.54 126.658L164.311 121.891L160.866 117.34L158.283 114.307L154.623 110.623L152.254 108.673L149.025 106.29L145.796 104.339L142.351 102.606L139.121 101.306L134.815 100.006L130.294 99.139L126.204 98.7056H121.252L115.654 99.3557L110.702 100.439L105.535 102.173L101.014 104.339L97.3538 106.723L94.3396 109.106L91.5408 111.707L88.9572 114.74L86.8043 117.774L84.8666 121.024L82.283 126.441L80.9912 130.558L80.1301 134.892L79.6995 138.575V145.292L80.1301 149.626L80.9912 154.393L82.4983 159.593L84.436 164.794L87.0195 169.994L89.3878 173.894L91.9714 177.578L94.7702 181.045L96.2773 182.778L97.3538 183.862V184.295L98.215 184.729L99.0762 185.595V186.029L99.9373 186.462L101.66 188.196L104.028 190.146L107.042 192.313L109.841 194.046L113.501 195.779L113.716 196.43L111.348 197.08L106.181 197.946L100.153 198.596H89.3878L83.3595 197.73L79.9148 196.646L75.8241 194.696L76.6853 198.596L78.4077 202.497L80.1301 205.53L81.6371 207.48V207.914L80.3454 207.697L74.1018 204.88L70.657 202.93L67.8582 200.98L65.4899 199.03L62.691 196.213L60.3228 192.963L58.6004 189.496L57.5239 186.245L57.0933 183.862V178.445L52.7874 178.011L47.405 176.711L43.7449 175.411L39.439 173.461L35.1331 171.078L30.8272 168.044L27.5977 165.227L25.4447 163.277L22.8612 160.677L22 159.377V158.943L24.3683 159.377L30.1813 160.243H34.7025L38.5778 159.593L41.592 158.51L44.6061 156.343L46.7591 154.176V153.093L44.3908 149.409L42.2379 145.726L39.8696 140.525L38.3625 135.975L37.0708 130.558L36.2096 124.491L35.9943 121.457V114.74L36.4249 109.54L37.2861 103.906L38.7931 97.8389L39.2237 97.1889L39.8696 97.4055L40.7308 99.789L42.8838 105.856L44.6061 109.323L45.6826 111.057L45.8979 110.19L46.3285 105.856L47.1897 102.173L48.4815 98.9223L50.4191 95.2387L52.1415 92.4219L54.7251 87.4381L56.0168 83.5379L56.6627 80.5043V74.4372L56.0168 71.6203V70.9703L57.0933 71.1869L59.6769 73.7871L62.2605 77.4707L64.1981 80.9377L65.7052 84.4046L66.5664 87.4381L66.997 89.8216V92.4219H66.5664L66.1358 93.5053L64.6287 95.022L63.5522 96.3221H63.1216L62.9063 89.8216L62.0452 85.7047L61.184 83.3212L60.9687 82.6711L58.8157 88.9549L57.0933 92.6385L55.1557 95.8888L53.4333 98.7056L51.7109 103.039L50.4191 107.59L50.2038 108.89V111.273L51.065 114.74L52.7874 118.64L54.7251 122.324V122.974L53.218 122.757L49.7733 121.241L47.405 119.724L45.252 117.774L42.6685 114.09L40.7308 110.84L40.5155 111.923L40.3002 117.34L40.5155 122.541L41.1614 127.958L42.0226 132.291L43.5297 137.492L45.252 141.825L47.1897 145.942L50.4191 151.143L52.3568 153.743L54.5098 156.56L54.7251 157.21H55.1557V158.077L48.9121 158.293L47.1897 160.027L45.0367 161.544L42.2379 162.844L39.2237 163.71L36.4249 164.144L33.1954 164.36L36.2096 166.527L39.439 168.477L43.9602 170.644L49.1274 172.378L53.8639 173.244H57.7392L60.5381 172.811H61.6146L61.8299 173.461L61.184 177.795V182.128L61.8299 185.595L63.1216 189.062L64.6287 191.879L66.7817 194.696L68.9346 196.863L71.3029 198.596L72.5947 199.463L71.5182 195.779L70.4417 191.446L70.2264 189.496V183.212L70.8723 183.429L72.3794 185.812L74.3171 187.979L76.47 189.712L80.3454 191.879L83.5748 193.179L87.2348 194.046L93.0479 194.479H98.4303L101.444 194.263L102.521 194.046L99.5067 191.879L96.2773 189.062L91.7561 184.512L89.3878 181.478L87.4501 179.095L84.0054 173.894L81.8524 170.211L79.2689 164.794L77.1159 158.727L75.8241 153.526L74.9629 148.543L74.7477 146.376V137.492L75.8241 130.991L77.3312 125.791L79.2689 121.241L81.6371 116.69L83.1442 114.523L85.7278 111.057L88.7419 107.806L91.3255 105.206L94.3396 102.823L97.5691 100.656L102.521 98.0556L106.827 96.3221L111.348 95.022L115.654 94.1553L119.314 93.7219H126.849L132.017 94.372L136.968 95.4554L141.059 96.7555L144.288 98.0556L148.379 100.006L152.039 102.389L154.407 104.123L157.206 106.506L159.79 108.89L161.512 110.623L163.019 112.357L166.033 116.04L168.832 120.157L171.416 123.841L172.062 124.708L172.492 120.374V116.04L172.062 111.49L171.201 106.723L169.909 101.523L168.402 97.1889L166.464 92.8552L164.311 88.9549L162.589 86.5714L160.005 83.5379L158.498 82.0211L156.345 80.5043L154.407 74.2205L152.47 69.4535L150.532 66.2032L149.025 64.2531L146.657 61.6529L146.011 61.0029L145.796 64.6865L145.15 68.1534L143.858 71.4036L141.92 74.4372L140.413 76.604L138.906 78.9875H138.475L138.045 73.3538L137.184 70.3202L135.677 68.1534L133.308 66.2032L129.218 64.0364L123.835 62.0863L120.606 61.2195L121.898 62.953L123.62 65.9866L124.912 69.4535L125.773 74.6539V76.604L124.912 76.1706L122.759 73.3538L119.96 70.5369L118.453 69.4535L114.577 68.1534L102.951 65.3365L97.7844 63.6031L94.3396 61.8696L91.1102 59.7028L88.3113 57.3193L84.8666 53.8523L82.4983 50.6021L80.3454 46.9185L78.623 42.5848L76.9006 36.5177L76.2547 36.3011L75.6088 38.4679L73.8865 44.1016L72.3794 50.3854L71.3029 56.6692L70.8723 61.2195V68.3701L71.5182 75.0872L73.2406 85.9214L73.4559 88.5216L72.5947 88.3049L69.1499 83.1045L68.0735 81.371L67.4276 78.9875L66.7817 74.0038L66.3511 66.8533V61.4362L66.7817 56.4525L67.6429 51.0355L68.9346 45.4017L70.8723 39.1179L72.81 34.5676L74.5324 31.1007L76.2547 28.0671L78.8383 24.6002L80.776 22.2167L80.9912 22Z" fill="#FDFCFC"/>
<path d="M80.9912 22H81.4218V24.1668L81.2065 25.4669V32.8341L82.283 38.2512L83.5748 42.1515L85.7278 46.7018L87.8807 49.7354L90.249 52.5522L92.6173 54.9358L96.2773 57.5359L99.722 59.2694L103.167 60.5695L113.932 63.1697L117.376 63.8197L117.807 64.0364L116.085 61.6529L112.855 58.4027L110.487 56.4525L110.056 55.5858L113.716 55.8025L118.668 56.6692L126.419 58.6194L131.801 60.5695L136.322 62.953L139.121 65.1198L140.844 66.8533L141.274 67.07L141.49 64.4698V61.4362L140.628 57.5359L138.906 53.6357L139.121 52.7689L143.427 54.7191L145.15 55.5858L148.164 57.7526L150.963 60.3528L153.761 63.8197L155.699 67.07L157.422 70.7536L159.574 76.8207L160.22 77.6874V78.1208H160.651L161.512 79.2042L163.235 80.721L165.603 83.3212L167.756 86.138L169.909 89.3883L172.492 94.5887L173.999 98.489L175.291 103.473L176.368 108.89L176.798 113.223V119.724L176.152 126.441L174.948 133.659L173.939 137.214L173.569 136.625L167.54 126.658L164.311 121.891L160.866 117.34L158.283 114.307L154.623 110.623L152.254 108.673L149.025 106.29L145.796 104.339L142.351 102.606L139.121 101.306L134.815 100.006L130.294 99.139L126.204 98.7056H121.252L115.654 99.3557L110.702 100.439L105.535 102.173L101.014 104.339L97.3538 106.723L94.3396 109.106L91.5408 111.707L88.9572 114.74L86.8043 117.774L84.8666 121.024L82.283 126.441L80.9912 130.558L80.1301 134.892L79.6995 138.575V145.292L80.1301 149.626L80.9912 154.393L82.4983 159.593L84.436 164.794L87.0195 169.994L89.3878 173.894L91.9714 177.578L94.7702 181.045L96.2773 182.778L97.3538 183.862V184.295L98.215 184.729L99.0762 185.595V186.029L99.9373 186.462L101.66 188.196L104.028 190.146L107.042 192.313L109.841 194.046L113.501 195.779L113.716 196.43L111.348 197.08L106.181 197.946L100.153 198.596H89.3878L83.3595 197.73L79.9148 196.646L75.8241 194.696L76.6853 198.596L78.4077 202.497L80.1301 205.53L81.6371 207.48V207.914L80.3454 207.697L74.1018 204.88L70.657 202.93L67.8582 200.98L65.4899 199.03L62.691 196.213L60.3228 192.963L58.6004 189.496L57.5239 186.245L57.0933 183.862V178.445L52.7874 178.011L47.405 176.711L43.7449 175.411L39.439 173.461L35.1331 171.078L30.8272 168.044L27.5977 165.227L25.4447 163.277L22.8612 160.677L22 159.377V158.943L24.3683 159.377L30.1813 160.243H34.7025L38.5778 159.593L41.592 158.51L44.6061 156.343L46.7591 154.176V153.093L44.3908 149.409L42.2379 145.726L39.8696 140.525L38.3625 135.975L37.0708 130.558L36.2096 124.491L35.9943 121.457V114.74L36.4249 109.54L37.2861 103.906L38.7931 97.8389L39.2237 97.1889L39.8696 97.4055L40.7308 99.789L42.8838 105.856L44.6061 109.323L45.6826 111.057L45.8979 110.19L46.3285 105.856L47.1897 102.173L48.4815 98.9223L50.4191 95.2387L52.1415 92.4219L54.7251 87.4381L56.0168 83.5379L56.6627 80.5043V74.4372L56.0168 71.6203V70.9703L57.0933 71.1869L59.6769 73.7871L62.2605 77.4707L64.1981 80.9377L65.7052 84.4046L66.5664 87.4381L66.997 89.8216V92.4219H66.5664L66.1358 93.5053L64.6287 95.022L63.5522 96.3221H63.1216L62.9063 89.8216L62.0452 85.7047L61.184 83.3212L60.9687 82.6711L58.8157 88.9549L57.0933 92.6385L55.1557 95.8888L53.4333 98.7056L51.7109 103.039L50.4191 107.59L50.2038 108.89V111.273L51.065 114.74L52.7874 118.64L54.7251 122.324V122.974L53.218 122.757L49.7733 121.241L47.405 119.724L45.252 117.774L42.6685 114.09L40.7308 110.84L40.5155 111.923L40.3002 117.34L40.5155 122.541L41.1614 127.958L42.0226 132.291L43.5297 137.492L45.252 141.825L47.1897 145.942L50.4191 151.143L52.3568 153.743L54.5098 156.56L54.7251 157.21H55.1557V158.077L48.9121 158.293L47.1897 160.027L45.0367 161.544L42.2379 162.844L39.2237 163.71L36.4249 164.144L33.1954 164.36L36.2096 166.527L39.439 168.477L43.9602 170.644L49.1274 172.378L53.8639 173.244H57.7392L60.5381 172.811H61.6146L61.8299 173.461L61.184 177.795V182.128L61.8299 185.595L63.1216 189.062L64.6287 191.879L66.7817 194.696L68.9346 196.863L71.3029 198.596L72.5947 199.463L71.5182 195.779L70.4417 191.446L70.2264 189.496V183.212L70.8723 183.429L72.3794 185.812L74.3171 187.979L76.47 189.712L80.3454 191.879L83.5748 193.179L87.2348 194.046L93.0479 194.479H98.4303L101.444 194.263L102.521 194.046L99.5067 191.879L96.2773 189.062L91.7561 184.512L89.3878 181.478L87.4501 179.095L84.0054 173.894L81.8524 170.211L79.2689 164.794L77.1159 158.727L75.8241 153.526L74.9629 148.543L74.7477 146.376V137.492L75.8241 130.991L77.3312 125.791L79.2689 121.241L81.6371 116.69L83.1442 114.523L85.7278 111.057L88.7419 107.806L91.3255 105.206L94.3396 102.823L97.5691 100.656L102.521 98.0556L106.827 96.3221L111.348 95.022L115.654 94.1553L119.314 93.7219H126.849L132.017 94.372L136.968 95.4554L141.059 96.7555L144.288 98.0556L148.379 100.006L152.039 102.389L154.407 104.123L157.206 106.506L159.79 108.89L161.512 110.623L163.019 112.357L166.033 116.04L168.832 120.157L171.416 123.841L172.062 124.708L172.492 120.374V116.04L172.062 111.49L171.201 106.723L169.909 101.523L168.402 97.1889L166.464 92.8552L164.311 88.9549L162.589 86.5714L160.005 83.5379L158.498 82.0211L156.345 80.5043L154.407 74.2205L152.47 69.4535L150.532 66.2032L149.025 64.2531L146.657 61.6529L146.011 61.0029L145.796 64.6865L145.15 68.1534L143.858 71.4036L141.92 74.4372L140.413 76.604L138.906 78.9875H138.475L138.045 73.3538L137.184 70.3202L135.677 68.1534L133.308 66.2032L129.218 64.0364L123.835 62.0863L120.606 61.2195L121.898 62.953L123.62 65.9866L124.912 69.4535L125.773 74.6539V76.604L124.912 76.1706L122.759 73.3538L119.96 70.5369L118.453 69.4535L114.577 68.1534L102.951 65.3365L97.7844 63.6031L94.3396 61.8696L91.1102 59.7028L88.3113 57.3193L84.8666 53.8523L82.4983 50.6021L80.3454 46.9185L78.623 42.5848L76.9006 36.5177L76.2547 36.3011L75.6088 38.4679L73.8865 44.1016L72.3794 50.3854L71.3029 56.6692L70.8723 61.2195V68.3701L71.5182 75.0872L73.2406 85.9214L73.4559 88.5216L72.5947 88.3049L69.1499 83.1045L68.0735 81.371L67.4276 78.9875L66.7817 74.0038L66.3511 66.8533V61.4362L66.7817 56.4525L67.6429 51.0355L68.9346 45.4017L70.8723 39.1179L72.81 34.5676L74.5324 31.1007L76.2547 28.0671L78.8383 24.6002L80.776 22.2167L80.9912 22Z" stroke="#CE4945" stroke-width="4" mask="url(#path-5-outside-1_75_40)"/>
</g>
<defs>
<filter id="filter0_dd_75_40" x="40.5874" y="21.9516" width="300.413" height="296.52" filterUnits="userSpaceOnUse" color-interpolation-filters="sRGB">
<feFlood flood-opacity="0" result="BackgroundImageFix"/>
<feColorMatrix in="SourceAlpha" type="matrix" values="0 0 0 0 0 0 0 0 0 0 0 0 0 0 0 0 0 0 127 0" result="hardAlpha"/>
<feOffset/>
<feGaussianBlur stdDeviation="7.5"/>
<feComposite in2="hardAlpha" operator="out"/>
<feColorMatrix type="matrix" values="0 0 0 0 0.992157 0 0 0 0 0.988235 0 0 0 0 0.988235 0 0 0 0.5 0"/>
<feBlend mode="normal" in2="BackgroundImageFix" result="effect1_dropShadow_75_40"/>
<feColorMatrix in="SourceAlpha" type="matrix" values="0 0 0 0 0 0 0 0 0 0 0 0 0 0 0 0 0 0 127 0" result="hardAlpha"/>
<feOffset/>
<feGaussianBlur stdDeviation="3.75"/>
<feComposite in2="hardAlpha" operator="out"/>
<feColorMatrix type="matrix" values="0 0 0 0 0.435294 0 0 0 0 0.384314 0 0 0 0 0.831373 0 0 0 0.5 0"/>
<feBlend mode="normal" in2="effect1_dropShadow_75_40" result="effect2_dropShadow_75_40"/>
<feBlend mode="normal" in="SourceGraphic" in2="effect2_dropShadow_75_40" result="shape"/>
</filter>
<filter id="filter1_d_75_40" x="0" y="0" width="198.798" height="230.277" filterUnits="userSpaceOnUse" color-interpolation-filters="sRGB">
<feFlood flood-opacity="0" result="BackgroundImageFix"/>
<feColorMatrix in="SourceAlpha" type="matrix" values="0 0 0 0 0 0 0 0 0 0 0 0 0 0 0 0 0 0 127 0" result="hardAlpha"/>
<feOffset/>
<feGaussianBlur stdDeviation="10"/>
<feComposite in2="hardAlpha" operator="out"/>
<feColorMatrix type="matrix" values="0 0 0 0 0.811765 0 0 0 0 0.286275 0 0 0 0 0.27451 0 0 0 1 0"/>
<feBlend mode="normal" in2="BackgroundImageFix" result="effect1_dropShadow_75_40"/>
<feBlend mode="normal" in="SourceGraphic" in2="effect1_dropShadow_75_40" result="shape"/>
</filter>
</defs>
</svg>
