<svg width="736" height="1312" viewBox="0 0 736 1312" fill="none" xmlns="http://www.w3.org/2000/svg">
<g clip-path="url(#clip0_104_134)">
<rect x="162" y="454" width="412" height="427" fill="#FBFBFB"/>
<rect x="91" y="729" width="550" height="235" fill="#D9D9D9"/>
<path d="M162.428 513.868L162.452 512C160.451 512 160.451 512 158.955 513.095L93.9449 570.435C91.4375 574.458 91.8527 574.777 92 586L92.0003 965L314.5 764.444L166.533 637.99C162.428 634.12 161.491 632.925 162.428 618V513.868Z" fill="#1B2D41"/>
<path d="M574 511C575.261 511.932 576.519 512.866 577.777 513.801C578.829 514.581 578.829 514.581 579.902 515.377C583.122 517.868 586.054 520.632 589 523.438C590.223 524.588 591.447 525.738 592.672 526.887C593.249 527.429 593.826 527.97 594.42 528.529C596.924 530.86 599.499 533.103 602.09 535.336C604.362 537.315 606.585 539.346 608.812 541.375C612.168 544.41 615.588 547.304 619.125 550.125C624.893 554.777 630.247 559.833 635.606 564.948C636.59 565.884 636.59 565.884 637.594 566.84C638.471 567.681 638.471 567.681 639.365 568.539C641.144 570.198 641.144 570.198 644 572C644.373 574.762 644.373 574.762 644.369 578.368C644.373 579.032 644.376 579.696 644.38 580.381C644.388 582.628 644.374 584.875 644.361 587.122C644.362 588.741 644.365 590.36 644.369 591.978C644.375 596.443 644.363 600.908 644.348 605.373C644.335 610.181 644.34 614.99 644.342 619.798C644.343 628.135 644.334 636.472 644.317 644.808C644.293 656.862 644.285 668.915 644.281 680.969C644.275 700.523 644.255 720.077 644.226 739.631C644.199 758.631 644.178 777.63 644.165 796.629C644.164 798.385 644.164 798.385 644.162 800.176C644.158 806.047 644.155 811.918 644.151 817.79C644.12 866.526 644.067 915.263 644 964C640.84 962.498 638.835 961.001 636.438 958.438C633.364 955.279 630.187 952.445 626.75 949.688C621.55 945.512 616.656 941.085 611.77 936.555C609.541 934.499 607.292 932.484 605 930.5C602.193 928.07 599.452 925.578 596.729 923.054C592.322 918.969 587.872 915.021 583.188 911.25C579.442 908.234 575.998 905.116 572.656 901.664C570.317 899.314 567.811 897.18 565.301 895.016C562.492 892.555 559.745 890.03 557 887.5C553.044 883.858 549.054 880.265 544.992 876.742C542.64 874.685 540.32 872.594 538 870.5C535.041 867.83 532.071 865.177 529.062 862.562C524.866 858.908 520.763 855.153 516.652 851.402C514.475 849.431 512.282 847.486 510.062 845.562C506.168 842.177 502.37 838.689 498.572 835.197C492.486 829.602 486.367 824.045 480.125 818.625C476.21 815.215 472.388 811.707 468.567 808.192C464.541 804.49 460.486 800.82 456.414 797.168C454.821 795.738 453.233 794.303 451.648 792.863C447.377 788.988 443.059 785.182 438.664 781.448C427.22 771.722 427.22 771.722 423 767C423 766.01 423 765.02 423 764C424.984 762.125 424.984 762.125 427.75 760C431.998 756.645 436.047 753.197 440 749.5C444.609 745.209 449.378 741.196 454.285 737.246C457.107 734.912 459.806 732.48 462.5 730C466.057 726.726 469.672 723.594 473.438 720.562C477.973 716.904 482.257 713.053 486.519 709.086C490.607 705.305 494.88 701.803 499.219 698.312C502.24 695.8 505.124 693.176 508 690.5C511.733 687.026 515.524 683.699 519.5 680.5C524.612 676.383 529.426 672.008 534.238 667.551C540.941 661.36 547.92 655.482 554.852 649.551C555.708 648.766 555.708 648.766 556.582 647.966C559 646 559 646 562.412 644.015C567.604 640.759 572.032 637.321 573.804 631.242C574.984 623.523 574.792 615.733 574.621 607.946C574.562 604.531 574.582 601.116 574.593 597.7C574.603 591.25 574.541 584.803 574.454 578.354C574.357 571.004 574.341 563.655 574.331 556.305C574.309 541.202 574.188 526.102 574 511Z" fill="#1B2D40"/>
<path d="M229 454H508L394.461 353.133C367.581 335.981 344.55 349.955 323.812 368.625L229 454Z" fill="#1B2D41"/>
<path d="M363 493C372.238 494.284 381.853 501.811 387.617 509.023C389.216 511.29 390.633 513.587 392 516C392.393 516.692 392.786 517.384 393.191 518.098C397.301 526.697 397.329 536.634 398 546C402.978 539.819 402.978 539.819 405.875 532.5C406.099 531.644 406.323 530.788 406.555 529.906C406.701 529.277 406.848 528.648 407 528C413.172 532.696 418.502 538.126 420 546C420.457 555.138 418.614 561.165 413.875 568.938C410.458 574.545 409.092 578.421 410 585C418.715 585.758 426.098 582.086 433 577C435.888 578.029 436.834 578.669 438.23 581.461C438.704 582.903 438.704 582.903 439.187 584.375C439.511 585.331 439.834 586.288 440.168 587.273C444.122 600.232 443.771 617.335 439 630C438.648 630.986 438.296 631.972 437.933 632.988C430.521 652.241 417.491 665.988 398.836 674.777C388.151 679.384 388.151 679.384 384 678C384.545 677.622 385.09 677.245 385.652 676.855C394.34 670.514 402.235 662.25 406 652C406.296 651.212 406.593 650.425 406.898 649.613C410.625 637.628 410.105 623.309 408 611C407.34 611 406.68 611 406 611C405.743 611.602 405.487 612.204 405.223 612.824C403.114 616.576 399.926 618.4 396 620C391.076 620.658 387.192 619.555 383.25 616.562C377.331 610.685 374.778 604.715 374.615 596.425C374.659 586.197 374.659 586.197 376 582C366.91 587.515 360.049 593.524 357 604C355.727 610.289 354.853 616.643 354 623C350.281 622.299 348.612 620.971 346.238 617.965C343.894 614.245 342.461 610.13 341 606C334.404 610.448 331.826 616.44 329.383 623.879C326.801 638.183 329.878 652.591 338.07 664.527C342.391 670.064 347.383 674.787 353 679C336.95 677.265 321.789 667.42 311.652 655.184C305.725 647.351 301.301 639.25 298 630C297.679 629.148 297.358 628.296 297.027 627.418C291.583 610.123 293.961 590.925 301.504 574.781C308.316 562.042 319.629 549.828 333 544C332.569 545.071 332.569 545.071 332.129 546.164C328.026 556.31 328.026 556.31 326 567C341.87 555.139 357.319 537.419 361.539 517.449C362.176 512.684 362.364 507.926 362.562 503.125C362.627 501.663 362.627 501.663 362.693 500.172C362.799 497.781 362.901 495.391 363 493Z" fill="#EE5A60"/>
<path d="M356 754C357.976 754.906 357.976 754.906 359.937 756C364.291 758.39 368.104 758.924 373 758C374.827 757.084 376.47 756.02 378.18 754.902C381.587 753.213 385.32 753.278 389 754C394.995 756.622 396.486 761.418 399.156 767.066C401.258 770.411 402.234 771.066 406 772C408.786 772.498 411.572 772.876 414.379 773.242C417.79 774.229 419.035 775.011 421 778C421.308 781.105 421.035 784.144 420.812 787.25C420.393 795.253 420.393 795.253 424.312 802C425.507 803.042 426.734 804.046 428 805C430.084 806.719 430.89 807.551 431.539 810.199C431.72 815.445 431.234 818.379 427.687 822.375C425.891 824.145 424.096 825.91 422.258 827.637C419.931 832.008 421.017 837.181 421.381 842.002C421.623 848.079 421.623 848.079 419.866 850.674C416.496 853.733 413.302 854.661 408.875 855.063C405.402 855.385 403.549 855.567 400.789 857.742C398.35 860.821 396.932 864.091 395.344 867.66C393.838 870.282 392.609 871.492 390 873C385.248 873.991 381.204 873.363 377 871C372.622 868.586 368.927 868.005 364 869C361.379 870.198 358.886 871.557 356.355 872.934C352.821 874.534 350.614 874.276 347 873C342.42 869.62 340.516 865.302 338.308 860.207C336.753 857.584 335.866 856.969 333 856C329.997 855.517 326.997 855.18 323.973 854.855C319.958 853.7 318.406 852.424 316 849C315.579 845.86 315.865 842.835 316.125 839.688C316.502 833.221 316.502 833.221 314.566 827.188C312.802 825.309 310.967 823.661 309 822C306.182 817.546 305.094 814.255 306 809C307.57 806.769 309.275 804.85 311.176 802.895C311.778 802.269 312.38 801.644 313 801C313.575 800.456 314.15 799.912 314.742 799.352C317.074 794.992 315.982 789.811 315.619 784.998C315.376 778.905 315.376 778.905 317.151 776.33C320.347 773.463 323.435 772.314 327.625 771.813C332.597 771.209 332.597 771.209 337 769C338.601 766.515 338.601 766.515 339.937 763.625C343.742 756.385 347.259 752.31 356 754Z" fill="#1D2E41"/>
<path d="M635.254 572.753C634.111 572.754 581.959 572.853 580.849 572.855C576.358 572.87 574.229 572.048 574 577.07L574 633L641 575C638 573 638 573 635.254 572.753Z" fill="#191D24"/>
<path d="M91 575V966L313.5 767.5L315 766L95 575H91Z" fill="#1B2D41" stroke="#1B2D41"/>
<path d="M96 575.579H161V523H162V634L96 575.579Z" fill="#191D24" stroke="#191D24"/>
<circle cx="368.5" cy="812.5" r="42.5" fill="#F2F5F7"/>
<path d="M406.5 813C406.5 833.987 389.487 851 368.5 851C347.513 851 330.5 833.987 330.5 813C330.5 792.013 347.513 775 368.5 775C389.487 775 406.5 792.013 406.5 813Z" fill="#1C2D41"/>
<path d="M320 730.5L163 595V632.5L273.5 730.5H320Z" fill="#D9D9D9"/>
<path d="M575 597L424 729H463L575 636.096V597Z" fill="#D9D9D9"/>
</g>
<defs>
<clipPath id="clip0_104_134">
<rect width="736" height="1312" fill="white"/>
</clipPath>
</defs>
</svg>
