<svg width="556" height="622" viewBox="0 0 556 622" fill="none" xmlns="http://www.w3.org/2000/svg">
<rect x="72" y="108.637" width="412" height="427" fill="#FBFBFB"/>
<rect x="1" y="383.637" width="550" height="235" fill="#B9B9B9"/>
<path d="M72.4285 168.505L72.452 166.637C70.4513 166.637 70.4513 166.637 68.955 167.732L3.94489 225.073C1.43747 229.095 1.85273 229.414 2 240.637L2.00026 619.637L224.5 419.081L76.5332 292.627C72.4285 288.757 71.4912 287.562 72.4285 272.637V168.505Z" fill="#1B2D41"/>
<path d="M484 165.637C485.261 166.569 486.519 167.503 487.777 168.438C488.829 169.218 488.829 169.218 489.902 170.014C493.122 172.506 496.054 175.269 499 178.075C500.223 179.226 501.447 180.375 502.672 181.524C503.249 182.066 503.826 182.608 504.42 183.166C506.924 185.497 509.499 187.74 512.09 189.973C514.362 191.953 516.585 193.983 518.812 196.012C522.168 199.047 525.588 201.942 529.125 204.762C534.893 209.415 540.247 214.47 545.606 219.585C546.59 220.522 546.59 220.522 547.594 221.477C548.471 222.318 548.471 222.318 549.365 223.176C551.144 224.835 551.144 224.835 554 226.637C554.373 229.399 554.373 229.399 554.369 233.006C554.373 233.67 554.376 234.334 554.38 235.018C554.388 237.266 554.374 239.512 554.361 241.76C554.362 243.378 554.365 244.997 554.369 246.616C554.375 251.081 554.363 255.545 554.348 260.01C554.335 264.819 554.34 269.627 554.342 274.436C554.343 282.772 554.334 291.109 554.317 299.446C554.293 311.499 554.285 323.553 554.281 335.606C554.275 355.16 554.255 374.715 554.226 394.269C554.199 413.268 554.178 432.267 554.165 451.267C554.164 453.022 554.164 453.022 554.162 454.813C554.158 460.685 554.155 466.556 554.151 472.427C554.12 521.164 554.067 569.901 554 618.637C550.84 617.136 548.835 615.639 546.438 613.075C543.364 609.916 540.187 607.083 536.75 604.325C531.55 600.149 526.656 595.722 521.77 591.192C519.541 589.136 517.292 587.121 515 585.137C512.193 582.708 509.452 580.215 506.729 577.691C502.322 573.607 497.872 569.658 493.188 565.887C489.442 562.871 485.998 559.754 482.656 556.302C480.317 553.951 477.811 551.817 475.301 549.653C472.492 547.193 469.745 544.668 467 542.137C463.044 538.496 459.054 534.902 454.992 531.38C452.64 529.322 450.32 527.231 448 525.137C445.041 522.467 442.071 519.814 439.062 517.2C434.866 513.546 430.763 509.79 426.652 506.04C424.475 504.068 422.282 502.124 420.062 500.2C416.168 496.815 412.37 493.327 408.572 489.834C402.486 484.24 396.367 478.683 390.125 473.262C386.21 469.853 382.388 466.344 378.567 462.83C374.541 459.128 370.486 455.458 366.414 451.805C364.821 450.375 363.233 448.94 361.648 447.501C357.377 443.626 353.059 439.82 348.664 436.086C337.22 426.359 337.22 426.359 333 421.637C333 420.647 333 419.657 333 418.637C334.984 416.762 334.984 416.762 337.75 414.637C341.998 411.282 346.047 407.834 350 404.137C354.609 399.847 359.378 395.833 364.285 391.884C367.107 389.549 369.806 387.118 372.5 384.637C376.057 381.363 379.672 378.231 383.438 375.2C387.973 371.542 392.257 367.69 396.519 363.724C400.607 359.943 404.88 356.441 409.219 352.95C412.24 350.438 415.124 347.813 418 345.137C421.733 341.663 425.524 338.337 429.5 335.137C434.612 331.021 439.426 326.645 444.238 322.188C450.941 315.998 457.92 310.119 464.852 304.188C465.708 303.404 465.708 303.404 466.582 302.604C469 300.637 469 300.637 472.412 298.653C477.604 295.396 482.032 291.958 483.804 285.88C484.984 278.161 484.792 270.37 484.621 262.583C484.562 259.168 484.582 255.753 484.593 252.338C484.603 245.888 484.541 239.44 484.454 232.991C484.357 225.642 484.341 218.292 484.331 210.942C484.309 195.84 484.188 180.739 484 165.637Z" fill="#1B2D40"/>
<path d="M139 108.637H418L304.461 7.77016C277.581 -9.38187 254.55 4.59238 233.812 23.2623L139 108.637Z" fill="#1B2D41"/>
<path d="M273 147.637C282.238 148.921 291.853 156.448 297.617 163.661C299.216 165.928 300.633 168.224 302 170.637C302.393 171.33 302.786 172.022 303.191 172.735C307.301 181.335 307.329 191.272 308 200.637C312.978 194.457 312.978 194.457 315.875 187.137C316.099 186.282 316.323 185.426 316.555 184.544C316.701 183.915 316.848 183.286 317 182.637C323.172 187.334 328.502 192.763 330 200.637C330.457 209.775 328.614 215.802 323.875 223.575C320.458 229.183 319.092 233.058 320 239.637C328.715 240.395 336.098 236.723 343 231.637C345.888 232.667 346.834 233.307 348.23 236.098C348.704 237.541 348.704 237.541 349.187 239.012C349.511 239.969 349.834 240.925 350.168 241.911C354.122 254.869 353.771 271.973 349 284.637C348.648 285.624 348.296 286.61 347.933 287.626C340.521 306.878 327.491 320.626 308.836 329.415C298.151 334.021 298.151 334.021 294 332.637C294.545 332.26 295.09 331.882 295.652 331.493C304.34 325.152 312.235 316.888 316 306.637C316.296 305.85 316.593 305.062 316.898 304.251C320.625 292.266 320.105 277.946 318 265.637C317.34 265.637 316.68 265.637 316 265.637C315.743 266.239 315.487 266.841 315.223 267.462C313.114 271.214 309.926 273.037 306 274.637C301.076 275.295 297.192 274.193 293.25 271.2C287.331 265.323 284.778 259.352 284.615 251.062C284.659 240.835 284.659 240.835 286 236.637C276.91 242.152 270.049 248.161 267 258.637C265.727 264.926 264.853 271.28 264 277.637C260.281 276.936 258.612 275.608 256.238 272.602C253.894 268.883 252.461 264.767 251 260.637C244.404 265.086 241.826 271.078 239.383 278.516C236.801 292.82 239.878 307.229 248.07 319.165C252.391 324.701 257.383 329.425 263 333.637C246.95 331.902 231.789 322.057 221.652 309.821C215.725 301.989 211.301 293.888 208 284.637C207.679 283.785 207.358 282.933 207.027 282.055C201.583 264.761 203.961 245.563 211.504 229.419C218.316 216.68 229.629 204.466 243 198.637C242.569 199.709 242.569 199.709 242.129 200.802C238.026 210.947 238.026 210.947 236 221.637C251.87 209.776 267.319 192.056 271.539 172.087C272.176 167.321 272.364 162.564 272.562 157.762C272.627 156.301 272.627 156.301 272.693 154.809C272.799 152.419 272.901 150.028 273 147.637Z" fill="#EE5A60"/>
<path d="M266 408.637C267.976 409.544 267.976 409.544 269.937 410.637C274.291 413.028 278.104 413.562 283 412.637C284.827 411.722 286.47 410.657 288.18 409.54C291.587 407.851 295.32 407.916 299 408.637C304.995 411.259 306.486 416.055 309.156 421.704C311.258 425.048 312.234 425.703 316 426.637C318.786 427.136 321.572 427.514 324.379 427.88C327.79 428.866 329.035 429.649 331 432.637C331.308 435.742 331.035 438.782 330.812 441.887C330.393 449.89 330.393 449.89 334.312 456.637C335.507 457.679 336.734 458.684 338 459.637C340.084 461.356 340.89 462.188 341.539 464.837C341.72 470.082 341.234 473.016 337.687 477.012C335.891 478.782 334.096 480.547 332.258 482.274C329.931 486.645 331.017 491.818 331.381 496.639C331.623 502.717 331.623 502.717 329.866 505.312C326.496 508.37 323.302 509.298 318.875 509.7C315.402 510.023 313.549 510.205 310.789 512.38C308.35 515.458 306.932 518.728 305.344 522.298C303.838 524.92 302.609 526.13 300 527.637C295.248 528.629 291.204 528 287 525.637C282.622 523.223 278.927 522.642 274 523.637C271.379 524.835 268.886 526.194 266.355 527.571C262.821 529.171 260.614 528.913 257 527.637C252.42 524.257 250.516 519.939 248.308 514.845C246.753 512.221 245.866 511.606 243 510.637C239.997 510.154 236.997 509.818 233.973 509.493C229.958 508.338 228.406 507.062 226 503.637C225.579 500.497 225.865 497.473 226.125 494.325C226.502 487.859 226.502 487.859 224.566 481.825C222.802 479.947 220.967 478.298 219 476.637C216.182 472.184 215.094 468.892 216 463.637C217.57 461.406 219.275 459.488 221.176 457.532C221.778 456.907 222.38 456.282 223 455.637C223.575 455.093 224.15 454.55 224.742 453.989C227.074 449.629 225.982 444.449 225.619 439.636C225.376 433.543 225.376 433.543 227.151 430.968C230.347 428.1 233.435 426.952 237.625 426.45C242.597 425.846 242.597 425.846 247 423.637C248.601 421.153 248.601 421.153 249.937 418.262C253.742 411.022 257.259 406.948 266 408.637Z" fill="#1D2E41"/>
<path d="M545.254 227.39C544.111 227.392 491.959 227.491 490.849 227.492C486.358 227.508 484.229 226.685 484 231.708L484 287.637L551 229.637C548 227.637 548 227.637 545.254 227.39Z" fill="#191D24"/>
<path d="M1 229.637V620.637L223.5 422.137L225 420.637L5 229.637H1Z" fill="#1B2D41" stroke="#1B2D41"/>
<path d="M6 230.216H71V177.637H72V288.637L6 230.216Z" fill="#191D24" stroke="#191D24"/>
<circle cx="278.5" cy="467.137" r="42.5" fill="#F2F5F7"/>
<path d="M316.5 467.637C316.5 488.624 299.487 505.637 278.5 505.637C257.513 505.637 240.5 488.624 240.5 467.637C240.5 446.651 257.513 429.637 278.5 429.637C299.487 429.637 316.5 446.651 316.5 467.637Z" fill="#1C2D41"/>
<path d="M230 385.137L73 249.637V287.137L183.5 385.137H230Z" fill="#B9B9B9"/>
<path d="M485 251.637L334 383.637H373L485 290.733V251.637Z" fill="#B9B9B9"/>
</svg>
